<svg width="320" height="62" viewBox="0 0 320 62" fill="none" xmlns="http://www.w3.org/2000/svg">
<path d="M48.9375 21.942V38.6815H33.0016V55.3325H16.5152V38.6815H1.53552V21.942H16.5152V5.05478H33.0016V21.942H48.9375Z" fill="#68C2E7"/>
<path d="M2.49173 48.7791H0.202759C0.202759 54.9199 5.53403 57.1932 11.7056 57.1932V55.0085C5.563 55.0085 2.49173 52.7647 2.49173 48.7791Z" fill="#09539F"/>
<path d="M2.43373 23.566C2.43373 23.0051 2.54962 22.4736 2.75244 21.9422H1.53552V38.7999H2.40475C2.31783 38.1504 2.28885 37.3237 2.28885 36.5561V27.8468C4.20116 30.1496 7.6491 31.6258 11.6186 31.6258V29.8544C6.57705 29.7954 2.43373 27.0202 2.43373 23.566Z" fill="#09539F"/>
<path d="M11.704 29.8523C11.6473 29.8523 11.6189 29.8234 11.6189 29.7656V29.8523C11.6473 29.8523 11.6756 29.8523 11.704 29.8523Z" fill="#09539F"/>
<path d="M21.2091 31.6549C21.2091 37.1757 20.253 41.3385 16.5153 43.0804C15.2404 43.6708 13.6468 43.9956 11.7345 43.9956V46.2098C13.502 46.2098 15.0666 46.0327 16.5153 45.5012C18.1668 44.8813 19.8184 44.0841 21.1222 42.0175C21.1222 50.5792 20.3979 55.0077 11.7056 55.0077V57.1924C22.513 57.1924 23.3243 51.2287 23.3243 45.206V31.6549H21.2091Z" fill="#09539F"/>
<path d="M16.5156 16.4798V18.2216C19.1522 19.314 20.9196 21.292 20.9196 23.5653C20.9196 26.99 16.8053 29.8242 11.7058 29.8242C11.6768 29.8242 11.6479 29.8242 11.6189 29.8242V31.5956C17.7035 31.5956 22.5712 27.9938 22.5712 23.6243C22.5712 20.554 20.1084 17.8083 16.5156 16.4798Z" fill="#09539F"/>
<path d="M1.53564 22.0595V38.7991H2.40487C2.98435 44.3494 11.7056 43.9951 11.7056 43.9951V46.2094C5.15742 46.2094 0.173846 44.7923 0 37.2344V6.29422H2.34692V9.77794H9.61947V12.2579H2.40487V19.4024C3.65076 17.8673 5.62101 16.6863 7.96793 16.0959C9.70639 15.653 11.5318 15.5645 13.2992 15.8302C14.3713 15.9778 15.733 16.214 16.5153 16.5092V18.2511C15.0956 17.6606 13.4441 17.4244 11.6766 17.4244H11.6477C7.38845 17.4539 3.76666 19.432 2.72358 22.089H1.53564V22.0595Z" fill="#09539F"/>
<path d="M38.275 56.927C32.1904 56.927 27.4097 53.4138 27.4097 48.9558C27.4097 44.5569 32.3353 41.0141 38.275 41.0141V42.756C33.2625 42.756 29.1192 45.5016 29.1192 48.9854C29.1192 52.4395 33.1756 55.1261 38.275 55.1261V56.927Z" fill="#09539F"/>
<path d="M26.2509 27.6994V17.4254C26.2509 6.32471 35.6965 6.32471 38.2173 6.32471C38.2173 7.00374 38.2173 8.45037 38.2173 8.45037H37.5219C29.9017 8.45037 28.7137 12.1112 28.7137 20.9977C31.785 17.8682 34.2768 17.3368 38.2173 17.2482V19.4329C33.9001 19.5215 30.3073 21.1748 28.6558 26.7547C28.5688 28.526 28.6558 29.8841 28.6558 31.685H26.2219L26.2509 27.6994Z" fill="#09539F"/>
<path d="M38.2171 17.2483C38.2171 17.2483 50.0097 16.7169 50.0097 28.1423C50.0097 37.8259 50.0097 47.539 50.0097 57.193H47.4889V53.0598C45.6056 55.3626 42.1576 56.9273 38.1592 56.9273V55.1559C43.1717 55.1559 47.3151 52.4693 47.3151 48.9561C47.3151 45.5019 43.2587 42.7562 38.1592 42.7562V41.0144C42.1287 41.0144 45.6056 42.4905 47.4889 44.8819V27.6995C47.4889 21.8244 42.911 19.433 38.2171 19.433C38.2171 18.1635 38.2171 17.2483 38.2171 17.2483Z" fill="#09539F"/>
<path d="M38.1592 6.32486C38.1592 6.32486 49.4881 5.43916 49.4881 15.0342H47.344C47.344 8.71622 41.2594 8.45052 38.1882 8.45052C38.2171 6.85627 38.1592 6.32486 38.1592 6.32486Z" fill="#09539F"/>
<path d="M80.1064 45.6211C79.8558 45.6393 79.6302 45.653 79.4297 45.6621C79.2292 45.6712 79.0264 45.6803 78.8213 45.6895C78.6162 45.6986 78.3997 45.7031 78.1719 45.7031C77.9486 45.7031 77.6842 45.7031 77.3789 45.7031C76.9095 45.7031 76.4287 45.6986 75.9365 45.6895C75.4489 45.6803 74.8792 45.6621 74.2275 45.6348C73.5075 45.6074 72.8968 45.5938 72.3955 45.5938C71.8258 45.5938 71.3564 45.6416 70.9873 45.7373C70.6182 45.8285 70.2695 45.9857 69.9414 46.209C69.7272 46.3594 69.5267 46.5326 69.3398 46.7285C69.153 46.9245 68.9912 47.1318 68.8545 47.3506C68.7223 47.5693 68.6175 47.7904 68.54 48.0137C68.4671 48.237 68.4307 48.4512 68.4307 48.6562C68.4307 48.7018 68.4307 48.7497 68.4307 48.7998C68.4307 48.8363 68.4398 48.891 68.458 48.9639L69.3535 48.6426C69.2806 48.5332 69.2282 48.4307 69.1963 48.335C69.1689 48.2347 69.1553 48.1094 69.1553 47.959C69.1553 47.5671 69.2965 47.2207 69.5791 46.9199C69.8024 46.6875 70.0872 46.5234 70.4336 46.4277C70.7799 46.3275 71.2471 46.2773 71.835 46.2773H71.9854L73.8174 46.3047C73.9769 46.3047 74.1296 46.307 74.2754 46.3115C74.4212 46.3161 74.5648 46.3184 74.7061 46.3184H75C74.7904 46.806 74.5807 47.3438 74.3711 47.9316C74.1615 48.5195 73.9723 49.0938 73.8037 49.6543C73.7217 49.9323 73.6374 50.2194 73.5508 50.5156C73.4688 50.8073 73.3913 51.0876 73.3184 51.3564C73.25 51.6208 73.1908 51.8646 73.1406 52.0879C73.0905 52.3112 73.0563 52.498 73.0381 52.6484C73.0016 52.8626 72.972 53.0973 72.9492 53.3525C72.931 53.6032 72.9219 53.8265 72.9219 54.0225C72.9219 54.1592 72.9242 54.2777 72.9287 54.3779C72.9333 54.4736 72.9401 54.5602 72.9492 54.6377C72.9629 54.7106 72.9788 54.7835 72.9971 54.8564C73.0153 54.9248 73.0381 55.0046 73.0654 55.0957L73.667 55C73.5439 54.7585 73.4596 54.5192 73.4141 54.2822C73.3685 54.0407 73.3457 53.7422 73.3457 53.3867C73.3457 52.8763 73.4186 52.2474 73.5645 51.5C73.7148 50.7526 73.9313 49.9414 74.2139 49.0664C74.2594 48.9069 74.3096 48.7428 74.3643 48.5742C74.4235 48.4056 74.4896 48.2233 74.5625 48.0273C74.6445 47.804 74.7106 47.6172 74.7607 47.4668C74.8154 47.3164 74.8678 47.182 74.918 47.0635C74.9727 46.9404 75.0251 46.8242 75.0752 46.7148C75.1253 46.6009 75.1868 46.4688 75.2598 46.3184C75.4284 46.3184 75.5788 46.3206 75.7109 46.3252C75.8431 46.3298 75.9639 46.3343 76.0732 46.3389C76.1872 46.3434 76.2965 46.3503 76.4014 46.3594C76.5107 46.3685 76.6315 46.3776 76.7637 46.3867L77.9053 46.4756C78.0374 46.4847 78.1582 46.4915 78.2676 46.4961C78.3815 46.5007 78.4909 46.5029 78.5957 46.5029C78.7051 46.5029 78.8145 46.5007 78.9238 46.4961C79.0332 46.4915 79.179 46.4801 79.3613 46.4619L80.1064 45.6211ZM74.5625 46.5713H73.749L73.6943 46.7285C73.6396 46.8835 73.5667 47.0703 73.4756 47.2891C73.389 47.5033 73.2887 47.7585 73.1748 48.0547C73.029 48.4466 72.9014 48.7907 72.792 49.0869C72.6826 49.3786 72.5915 49.6315 72.5186 49.8457C72.3408 50.3607 72.1745 50.8734 72.0195 51.3838C71.8691 51.8896 71.7347 52.3773 71.6162 52.8467C71.4977 53.3115 71.3997 53.7422 71.3223 54.1387C71.2448 54.5352 71.1901 54.8792 71.1582 55.1709L72.293 55C72.3112 54.7767 72.3454 54.5101 72.3955 54.2002C72.4502 53.8857 72.5094 53.5531 72.5732 53.2021C72.6416 52.8512 72.7168 52.4958 72.7988 52.1357C72.8809 51.7757 72.9697 51.4339 73.0654 51.1104C73.111 50.9235 73.168 50.7093 73.2363 50.4678C73.3092 50.2217 73.3958 49.946 73.4961 49.6406C73.5918 49.3581 73.6693 49.1234 73.7285 48.9365C73.7878 48.7497 73.8493 48.5605 73.9131 48.3691C73.9814 48.1777 74.0589 47.9567 74.1455 47.7061C74.2367 47.4554 74.3574 47.1296 74.5078 46.7285L74.5625 46.5713ZM86.8995 51.0352C86.8357 51.1309 86.781 51.2129 86.7354 51.2812C86.6944 51.3451 86.6488 51.4089 86.5987 51.4727C86.5485 51.5365 86.4825 51.6162 86.4004 51.7119C86.323 51.8031 86.2227 51.9238 86.0996 52.0742L85.4844 52.7988C85.0651 53.3047 84.6527 53.7103 84.2471 54.0156C83.8415 54.3164 83.5225 54.4668 83.2901 54.4668C83.085 54.4668 82.9825 54.3551 82.9825 54.1318C82.9825 54.0407 83.0121 53.8903 83.0713 53.6807C83.1306 53.4665 83.2263 53.1361 83.3584 52.6895L84.0557 50.3926C84.1058 50.2331 84.1491 50.069 84.1856 49.9004C84.222 49.7272 84.2403 49.5882 84.2403 49.4834C84.2403 49.2145 84.156 48.9912 83.9873 48.8135C83.8187 48.6357 83.6136 48.5469 83.3721 48.5469C82.9802 48.5469 82.5791 48.6859 82.169 48.9639C81.7588 49.2373 81.376 49.6201 81.0205 50.1123C80.5739 50.7367 80.1547 51.4499 79.7627 52.252C79.3708 53.0495 79.0108 53.9427 78.6827 54.9316H78.4981L80.5284 48.5059C81.0069 48.4284 81.4854 48.2826 81.9639 48.0684C82.447 47.8542 82.8845 47.5944 83.2764 47.2891C83.7048 46.9609 84.0443 46.6055 84.295 46.2227C84.5502 45.8398 84.6778 45.4844 84.6778 45.1562C84.6778 44.8327 84.5638 44.5706 84.336 44.3701C84.1127 44.1696 83.8051 44.0693 83.4131 44.0693C82.8435 44.0693 82.2989 44.2607 81.7793 44.6436C81.2644 45.0218 80.8383 45.5436 80.501 46.209C80.3825 46.4505 80.264 46.7171 80.1455 47.0088C80.0271 47.2959 79.904 47.6354 79.7764 48.0273C79.503 47.9818 79.2888 47.8701 79.1338 47.6924C78.9834 47.5146 78.9082 47.2868 78.9082 47.0088V46.9336L78.334 47.3848C78.4753 48.0638 78.9082 48.4193 79.6329 48.4512L78.4024 52.3682L77.5889 54.9316L77.5069 55.2119L78.8399 55L78.9219 54.7607C79.0905 54.2868 79.25 53.8584 79.4004 53.4756C79.5554 53.0928 79.7126 52.7373 79.8721 52.4092C80.0316 52.0811 80.1957 51.7757 80.3643 51.4932C80.5329 51.2106 80.7107 50.9326 80.8975 50.6592C81.2484 50.1442 81.5834 49.7523 81.9024 49.4834C82.2214 49.2145 82.5108 49.0801 82.7705 49.0801C82.9301 49.0801 83.0577 49.137 83.1534 49.251C83.2536 49.3604 83.3038 49.5039 83.3038 49.6816C83.3038 49.7819 83.2878 49.8936 83.2559 50.0166C83.224 50.1396 83.1693 50.3265 83.0918 50.5771L82.128 53.6533C82.0733 53.8219 82.0277 53.9769 81.9913 54.1182C81.9593 54.2594 81.9434 54.3665 81.9434 54.4395C81.9434 54.6536 82.0118 54.8268 82.1485 54.959C82.2852 55.0911 82.4607 55.1572 82.6748 55.1572C83.0759 55.1572 83.5704 54.9043 84.1582 54.3984C84.6595 53.9701 85.1244 53.5098 85.5528 53.0176C85.9857 52.5208 86.3982 51.9876 86.7901 51.418L86.8995 51.0352ZM84.001 45.3271C84.001 45.6735 83.9053 46.0107 83.7139 46.3389C83.5225 46.6624 83.2696 46.9564 82.9551 47.2207C82.6452 47.4805 82.2898 47.6947 81.8887 47.8633C81.4877 48.0273 81.073 48.1139 80.6446 48.123L80.7129 47.9316C80.8542 47.5397 80.9727 47.2025 81.0684 46.9199C81.1687 46.6328 81.2575 46.3844 81.335 46.1748C81.417 45.9652 81.4922 45.7806 81.5606 45.6211C81.6289 45.4616 81.7064 45.3112 81.793 45.1699C82.1348 44.5911 82.5632 44.3018 83.0782 44.3018C83.347 44.3018 83.5681 44.3975 83.7413 44.5889C83.9144 44.7803 84.001 45.0264 84.001 45.3271ZM93.0841 44.876L92.8585 43.9668L90.3223 45.8262L90.4659 46.0244L93.0841 44.876ZM94.8546 51.0352C94.7999 51.1126 94.7543 51.1764 94.7179 51.2266C94.6814 51.2767 94.6495 51.3223 94.6221 51.3633C94.294 51.7917 93.9386 52.2155 93.5557 52.6348C93.1729 53.054 92.8083 53.4141 92.462 53.7148C92.1658 53.9837 91.9151 54.1774 91.71 54.2959C91.505 54.4098 91.3136 54.4668 91.1358 54.4668C90.9307 54.4668 90.8282 54.3643 90.8282 54.1592C90.8282 54.0954 90.8442 53.986 90.8761 53.8311C90.908 53.6761 90.9513 53.4915 91.0059 53.2773C91.0652 53.0632 91.129 52.8307 91.1973 52.5801C91.2657 52.3249 91.3432 52.0674 91.4298 51.8076L91.9014 50.2969C91.9971 49.9961 92.102 49.6794 92.2159 49.3467C92.3344 49.0094 92.4415 48.7201 92.5372 48.4785L91.4434 48.6289L90.8555 50.4609L90.712 50.4473C90.7621 50.2604 90.7917 50.1169 90.8009 50.0166C90.81 49.9118 90.8145 49.7819 90.8145 49.627C90.8145 48.8613 90.5092 48.4785 89.8985 48.4785C89.2013 48.4785 88.4789 48.8796 87.7315 49.6816C87.0798 50.3789 86.574 51.0785 86.2139 51.7803C85.8539 52.4821 85.6739 53.1224 85.6739 53.7012C85.6739 54.1387 85.7833 54.4919 86.002 54.7607C86.2208 55.0251 86.5079 55.1572 86.8634 55.1572C87.1915 55.1572 87.5264 55.0524 87.8682 54.8428C88.2146 54.6286 88.5541 54.3369 88.8868 53.9678C89.2195 53.5941 89.5294 53.1497 89.8165 52.6348C90.1082 52.1198 90.3565 51.5592 90.5616 50.9531L90.6983 50.9805L89.96 53.3184C89.8643 53.6009 89.7983 53.8242 89.7618 53.9883C89.7253 54.1478 89.7071 54.2754 89.7071 54.3711C89.7071 54.6126 89.7686 54.804 89.8917 54.9453C90.0193 55.0866 90.1902 55.1572 90.4044 55.1572C90.6459 55.1572 90.9216 55.082 91.2315 54.9316C91.5414 54.7812 91.8445 54.5762 92.1407 54.3164C92.5053 53.9883 92.8995 53.5827 93.3233 53.0996C93.7471 52.612 94.1596 52.1198 94.5606 51.623L94.7315 51.418L94.8546 51.0352ZM90.377 50.2832C90.377 50.6113 90.3246 50.9372 90.2198 51.2607C90.1195 51.5798 89.9486 51.9489 89.7071 52.3682C89.3243 53.0199 88.9278 53.5326 88.5177 53.9062C88.1075 54.2799 87.7247 54.4668 87.3692 54.4668C87.1459 54.4668 86.9682 54.3711 86.836 54.1797C86.7039 53.9883 86.6378 53.7194 86.6378 53.373C86.6378 53.3275 86.6401 53.2773 86.6446 53.2227C86.6492 53.168 86.656 53.1156 86.6651 53.0654C86.7244 52.555 86.8474 52.056 87.0343 51.5684C87.2211 51.0762 87.4421 50.641 87.6973 50.2627C87.9526 49.8844 88.2305 49.5814 88.5313 49.3535C88.8367 49.1211 89.1352 49.0049 89.4268 49.0049C89.7139 49.0049 89.9441 49.1211 90.1173 49.3535C90.2904 49.5814 90.377 49.8913 90.377 50.2832ZM92.6261 47.6309L91.8126 45.6553L89.3311 47.5762L89.461 47.7744L91.505 46.6396L92.4278 47.7744L92.6261 47.6309ZM102.721 51.0352C102.393 51.5137 102.051 51.9626 101.695 52.3818C101.34 52.8011 100.998 53.1657 100.67 53.4756C100.346 53.7809 100.043 54.0225 99.7609 54.2002C99.4829 54.3779 99.255 54.4668 99.0773 54.4668C98.8813 54.4668 98.7833 54.3643 98.7833 54.1592C98.7833 54.0954 98.7993 53.9769 98.8312 53.8037C98.8631 53.6305 98.9041 53.4642 98.9542 53.3047L99.3029 52.1016L99.8771 50.2559L100.41 48.7246L100.492 48.4785L99.2345 48.6973C99.1297 49.0892 98.993 49.4902 98.8243 49.9004C98.6557 50.306 98.437 50.7822 98.1681 51.3291C97.9812 51.6937 97.8081 52.0218 97.6486 52.3135C97.489 52.6006 97.3295 52.8581 97.17 53.0859C97.0151 53.3092 96.8556 53.512 96.6915 53.6943C96.5275 53.8721 96.3566 54.0407 96.1788 54.2002C95.9191 54.4326 95.6251 54.5739 95.297 54.624H95.256C95.0965 54.624 94.9689 54.5693 94.8732 54.46C94.782 54.346 94.7364 54.1956 94.7364 54.0088C94.7364 53.9222 94.7501 53.8174 94.7775 53.6943C94.8094 53.5667 94.8663 53.373 94.9484 53.1133L96.4181 48.4785L94.0529 48.6973L93.9845 48.9365H94.1212C94.4767 48.9365 94.7205 48.9753 94.8527 49.0527C94.9894 49.1257 95.0577 49.2555 95.0577 49.4424C95.0577 49.5153 95.0532 49.5973 95.0441 49.6885C95.0349 49.7751 95.0167 49.8708 94.9894 49.9756C94.9894 49.9847 94.978 50.0348 94.9552 50.126C94.9324 50.2126 94.8937 50.3493 94.839 50.5361L94.6134 51.2744L94.4288 51.876L94.2648 52.3818C94.242 52.4092 94.2169 52.473 94.1896 52.5732C94.1622 52.6689 94.1258 52.7965 94.0802 52.9561C93.9754 53.3298 93.9025 53.6055 93.8614 53.7832C93.8204 53.9609 93.7999 54.1045 93.7999 54.2139C93.7999 54.5146 93.8797 54.7471 94.0392 54.9111C94.1987 55.0752 94.4129 55.1572 94.6818 55.1572C95.894 55.1572 97.088 53.9564 98.2638 51.5547C98.4871 51.0898 98.6967 50.6227 98.8927 50.1533C99.0887 49.6794 99.2527 49.2236 99.3849 48.7861H99.4396L98.1271 52.9561C98.0223 53.2933 97.9402 53.5553 97.881 53.7422C97.8217 53.929 97.7807 54.0452 97.7579 54.0908C97.7397 54.1364 97.7306 54.1865 97.7306 54.2412C97.7306 54.2913 97.7306 54.3438 97.7306 54.3984C97.7306 54.64 97.7876 54.8268 97.9015 54.959C98.0154 55.0911 98.1749 55.1572 98.38 55.1572C98.7127 55.1572 99.1183 54.9863 99.5968 54.6445C100.08 54.3027 100.62 53.8014 101.217 53.1406C101.499 52.8398 101.752 52.5505 101.976 52.2725C102.199 51.9899 102.409 51.7051 102.605 51.418L102.721 51.0352ZM115.111 51.0352C115.047 51.1309 114.992 51.2129 114.946 51.2812C114.905 51.3451 114.86 51.4089 114.81 51.4727C114.76 51.5365 114.694 51.6162 114.612 51.7119C114.534 51.8031 114.434 51.9238 114.311 52.0742L113.696 52.7988C113.276 53.3047 112.864 53.7103 112.458 54.0156C112.053 54.3164 111.734 54.4668 111.501 54.4668C111.296 54.4668 111.194 54.3551 111.194 54.1318C111.194 54.0407 111.223 53.8903 111.282 53.6807C111.342 53.4665 111.437 53.1361 111.57 52.6895L112.267 50.3926C112.317 50.2331 112.36 50.069 112.397 49.9004C112.433 49.7272 112.451 49.5882 112.451 49.4834C112.451 49.2145 112.367 48.9912 112.198 48.8135C112.03 48.6357 111.825 48.5469 111.583 48.5469C111.191 48.5469 110.79 48.6859 110.38 48.9639C109.97 49.2373 109.587 49.6201 109.232 50.1123C108.785 50.7367 108.366 51.4499 107.974 52.252C107.582 53.0495 107.222 53.9427 106.894 54.9316H106.709L108.739 48.5059C109.218 48.4284 109.696 48.2826 110.175 48.0684C110.658 47.8542 111.096 47.5944 111.487 47.2891C111.916 46.9609 112.255 46.6055 112.506 46.2227C112.761 45.8398 112.889 45.4844 112.889 45.1562C112.889 44.8327 112.775 44.5706 112.547 44.3701C112.324 44.1696 112.016 44.0693 111.624 44.0693C111.055 44.0693 110.51 44.2607 109.99 44.6436C109.475 45.0218 109.049 45.5436 108.712 46.209C108.594 46.4505 108.475 46.7171 108.357 47.0088C108.238 47.2959 108.115 47.6354 107.987 48.0273C107.714 47.9818 107.5 47.8701 107.345 47.6924C107.195 47.5146 107.119 47.2868 107.119 47.0088V46.9336L106.545 47.3848C106.686 48.0638 107.119 48.4193 107.844 48.4512L106.613 52.3682L105.8 54.9316L105.718 55.2119L107.051 55L107.133 54.7607C107.302 54.2868 107.461 53.8584 107.612 53.4756C107.766 53.0928 107.924 52.7373 108.083 52.4092C108.243 52.0811 108.407 51.7757 108.575 51.4932C108.744 51.2106 108.922 50.9326 109.109 50.6592C109.46 50.1442 109.794 49.7523 110.113 49.4834C110.432 49.2145 110.722 49.0801 110.982 49.0801C111.141 49.0801 111.269 49.137 111.364 49.251C111.465 49.3604 111.515 49.5039 111.515 49.6816C111.515 49.7819 111.499 49.8936 111.467 50.0166C111.435 50.1396 111.38 50.3265 111.303 50.5771L110.339 53.6533C110.284 53.8219 110.239 53.9769 110.202 54.1182C110.17 54.2594 110.154 54.3665 110.154 54.4395C110.154 54.6536 110.223 54.8268 110.36 54.959C110.496 55.0911 110.672 55.1572 110.886 55.1572C111.287 55.1572 111.781 54.9043 112.369 54.3984C112.871 53.9701 113.335 53.5098 113.764 53.0176C114.197 52.5208 114.609 51.9876 115.001 51.418L115.111 51.0352ZM112.212 45.3271C112.212 45.6735 112.116 46.0107 111.925 46.3389C111.734 46.6624 111.481 46.9564 111.166 47.2207C110.856 47.4805 110.501 47.6947 110.1 47.8633C109.699 48.0273 109.284 48.1139 108.856 48.123L108.924 47.9316C109.065 47.5397 109.184 47.2025 109.279 46.9199C109.38 46.6328 109.469 46.3844 109.546 46.1748C109.628 45.9652 109.703 45.7806 109.772 45.6211C109.84 45.4616 109.918 45.3112 110.004 45.1699C110.346 44.5911 110.774 44.3018 111.289 44.3018C111.558 44.3018 111.779 44.3975 111.952 44.5889C112.126 44.7803 112.212 45.0264 112.212 45.3271ZM118.937 51.0352C118.891 51.1126 118.848 51.1787 118.807 51.2334C118.77 51.2881 118.739 51.3359 118.711 51.377C118.602 51.5319 118.465 51.7096 118.301 51.9102C118.137 52.1107 117.961 52.318 117.775 52.5322C117.588 52.7419 117.399 52.9492 117.207 53.1543C117.016 53.3594 116.836 53.5462 116.667 53.7148C116.143 54.2161 115.71 54.4668 115.368 54.4668C115.163 54.4668 115.061 54.3643 115.061 54.1592C115.061 54.1045 115.074 54.0065 115.102 53.8652C115.129 53.724 115.166 53.5599 115.211 53.373C115.257 53.1862 115.309 52.9811 115.368 52.7578C115.432 52.5345 115.501 52.3112 115.573 52.0879L116.708 48.4785L114.37 48.6699L114.302 48.9092H114.487C114.819 48.9092 115.047 48.9502 115.17 49.0322C115.293 49.1097 115.355 49.2555 115.355 49.4697C115.355 49.6292 115.316 49.8594 115.239 50.1602C115.166 50.4564 115.036 50.8984 114.849 51.4863L114.288 53.2773C114.184 53.6055 114.111 53.8516 114.07 54.0156C114.029 54.1751 114.008 54.3027 114.008 54.3984C114.008 54.6217 114.07 54.804 114.193 54.9453C114.32 55.0866 114.482 55.1572 114.678 55.1572C114.901 55.1572 115.166 55.0752 115.471 54.9111C115.776 54.7471 116.077 54.5283 116.373 54.2549C116.774 53.8949 117.189 53.4642 117.617 52.9629C118.05 52.4616 118.454 51.9466 118.827 51.418L118.937 51.0352ZM117.371 46.8242C117.371 46.6191 117.31 46.4574 117.187 46.3389C117.068 46.2158 116.906 46.1543 116.701 46.1543C116.496 46.1543 116.328 46.2227 116.196 46.3594C116.063 46.4915 115.997 46.6647 115.997 46.8789C115.997 47.0749 116.059 47.2321 116.182 47.3506C116.305 47.4691 116.474 47.5283 116.688 47.5283C116.884 47.5283 117.045 47.4622 117.173 47.3301C117.305 47.1979 117.371 47.0293 117.371 46.8242ZM124.786 51.0352C124.312 51.6641 123.861 52.2109 123.433 52.6758C123.005 53.1406 122.594 53.5189 122.202 53.8105C121.874 54.0521 121.512 54.248 121.116 54.3984C120.719 54.5488 120.343 54.624 119.988 54.624C119.081 54.624 118.627 54.1751 118.627 53.2773C118.627 53.168 118.63 53.0677 118.634 52.9766C118.639 52.8809 118.65 52.7897 118.668 52.7031C118.691 52.612 118.714 52.5186 118.737 52.4229C118.759 52.3226 118.794 52.2064 118.839 52.0742C119.017 52.1198 119.156 52.1494 119.256 52.1631C119.361 52.1768 119.502 52.1836 119.68 52.1836C120.054 52.1836 120.384 52.1335 120.671 52.0332C120.963 51.9284 121.27 51.7507 121.594 51.5C122 51.181 122.314 50.8438 122.537 50.4883C122.761 50.1283 122.872 49.7842 122.872 49.4561C122.872 49.1553 122.788 48.9183 122.619 48.7451C122.451 48.5674 122.223 48.4785 121.936 48.4785C121.198 48.4785 120.459 48.8363 119.721 49.5518C119.088 50.1579 118.586 50.8164 118.217 51.5273C117.848 52.2383 117.663 52.9014 117.663 53.5166C117.663 54.0407 117.816 54.4463 118.121 54.7334C118.431 55.016 118.871 55.1572 119.441 55.1572C119.887 55.1572 120.323 55.0843 120.746 54.9385C121.175 54.7926 121.601 54.5693 122.025 54.2686C122.449 53.9632 122.877 53.5758 123.31 53.1064C123.747 52.6325 124.199 52.0697 124.663 51.418L124.786 51.0352ZM122.045 49.5654C122.045 49.8024 122.002 50.0553 121.915 50.3242C121.833 50.5931 121.717 50.8415 121.567 51.0693C121.225 51.6162 120.81 51.8896 120.323 51.8896C120.108 51.8896 119.89 51.8532 119.666 51.7803C119.443 51.7074 119.229 51.6048 119.024 51.4727C119.088 51.304 119.147 51.1605 119.201 51.042C119.261 50.9189 119.313 50.8096 119.359 50.7139C119.404 50.6136 119.452 50.5202 119.502 50.4336C119.557 50.3424 119.621 50.2445 119.694 50.1396C119.963 49.7295 120.261 49.4014 120.589 49.1553C120.917 48.9092 121.207 48.7861 121.457 48.7861C121.635 48.7861 121.776 48.8568 121.881 48.998C121.991 49.1348 122.045 49.3239 122.045 49.5654ZM123.494 46.8447L124.014 46.6807C124.014 46.6807 124.009 46.6533 124 46.5986C123.991 46.5212 123.993 46.4505 124.007 46.3867C124.025 46.3229 124.06 46.266 124.11 46.2158C124.164 46.1657 124.235 46.1156 124.322 46.0654C124.408 46.0107 124.522 45.9515 124.663 45.8877C125.242 45.6234 125.509 45.3545 125.463 45.0811C125.436 44.9124 125.322 44.7712 125.121 44.6572C124.925 44.5387 124.668 44.4772 124.349 44.4727C124.189 44.4727 124.044 44.4886 123.911 44.5205C123.784 44.5479 123.67 44.5911 123.57 44.6504L123.706 44.8418C123.93 44.7005 124.121 44.6299 124.281 44.6299C124.381 44.6299 124.472 44.6618 124.554 44.7256C124.636 44.7848 124.691 44.8874 124.718 45.0332C124.741 45.1927 124.711 45.334 124.629 45.457C124.547 45.5801 124.404 45.7122 124.199 45.8535C124.103 45.9173 124.019 45.9788 123.946 46.0381C123.873 46.0928 123.811 46.1429 123.761 46.1885C123.661 46.2887 123.588 46.4004 123.542 46.5234C123.501 46.6465 123.492 46.7673 123.515 46.8857C123.515 46.8903 123.508 46.8766 123.494 46.8447ZM123.693 47.6924L122.866 45.7168L120.405 47.6377L120.528 47.8359L122.558 46.7012L123.494 47.8359L123.693 47.6924ZM132.673 51.0352C132.345 51.5137 132.003 51.9626 131.648 52.3818C131.292 52.8011 130.951 53.1657 130.622 53.4756C130.299 53.7809 129.996 54.0225 129.713 54.2002C129.435 54.3779 129.207 54.4668 129.03 54.4668C128.834 54.4668 128.736 54.3643 128.736 54.1592C128.736 54.0954 128.752 53.9769 128.784 53.8037C128.815 53.6305 128.856 53.4642 128.907 53.3047L129.255 52.1016L129.829 50.2559L130.363 48.7246L130.445 48.4785L129.187 48.6973C129.082 49.0892 128.945 49.4902 128.777 49.9004C128.608 50.306 128.389 50.7822 128.12 51.3291C127.934 51.6937 127.76 52.0218 127.601 52.3135C127.441 52.6006 127.282 52.8581 127.122 53.0859C126.967 53.3092 126.808 53.512 126.644 53.6943C126.48 53.8721 126.309 54.0407 126.131 54.2002C125.871 54.4326 125.577 54.5739 125.249 54.624H125.208C125.049 54.624 124.921 54.5693 124.826 54.46C124.734 54.346 124.689 54.1956 124.689 54.0088C124.689 53.9222 124.702 53.8174 124.73 53.6943C124.762 53.5667 124.819 53.373 124.901 53.1133L126.37 48.4785L124.005 48.6973L123.937 48.9365H124.074C124.429 48.9365 124.673 48.9753 124.805 49.0527C124.942 49.1257 125.01 49.2555 125.01 49.4424C125.01 49.5153 125.006 49.5973 124.996 49.6885C124.987 49.7751 124.969 49.8708 124.942 49.9756C124.942 49.9847 124.93 50.0348 124.908 50.126C124.885 50.2126 124.846 50.3493 124.791 50.5361L124.566 51.2744L124.381 51.876L124.217 52.3818C124.194 52.4092 124.169 52.473 124.142 52.5732C124.115 52.6689 124.078 52.7965 124.033 52.9561C123.928 53.3298 123.855 53.6055 123.814 53.7832C123.773 53.9609 123.752 54.1045 123.752 54.2139C123.752 54.5146 123.832 54.7471 123.992 54.9111C124.151 55.0752 124.365 55.1572 124.634 55.1572C125.846 55.1572 127.04 53.9564 128.216 51.5547C128.439 51.0898 128.649 50.6227 128.845 50.1533C129.041 49.6794 129.205 49.2236 129.337 48.7861H129.392L128.079 52.9561C127.975 53.2933 127.893 53.5553 127.833 53.7422C127.774 53.929 127.733 54.0452 127.71 54.0908C127.692 54.1364 127.683 54.1865 127.683 54.2412C127.683 54.2913 127.683 54.3438 127.683 54.3984C127.683 54.64 127.74 54.8268 127.854 54.959C127.968 55.0911 128.127 55.1572 128.332 55.1572C128.665 55.1572 129.071 54.9863 129.549 54.6445C130.032 54.3027 130.572 53.8014 131.169 53.1406C131.452 52.8398 131.705 52.5505 131.928 52.2725C132.151 51.9899 132.361 51.7051 132.557 51.418L132.673 51.0352ZM145.104 51.0352C144.972 51.2129 144.858 51.3678 144.762 51.5C144.671 51.6322 144.571 51.7643 144.461 51.8965C144.357 52.0241 144.238 52.1631 144.106 52.3135C143.978 52.4639 143.812 52.6462 143.607 52.8604C143.101 53.4209 142.675 53.8288 142.329 54.084C141.987 54.3392 141.695 54.4668 141.454 54.4668C141.248 54.4668 141.146 54.3551 141.146 54.1318C141.146 54.0498 141.173 53.8994 141.228 53.6807C141.283 53.4574 141.385 53.0951 141.536 52.5938L142.192 50.3652C142.324 49.9186 142.39 49.6019 142.39 49.415C142.39 49.1234 142.315 48.8955 142.164 48.7314C142.014 48.5628 141.809 48.4785 141.549 48.4785C141.166 48.4785 140.772 48.613 140.367 48.8818C139.961 49.1507 139.562 49.5495 139.17 50.0781C138.778 50.6068 138.4 51.2585 138.036 52.0332C137.671 52.8079 137.329 53.6989 137.01 54.7061L136.942 54.9316H136.764L138.76 48.4785L136.593 48.6699L136.436 48.9229H136.778C137.224 48.9229 137.448 49.0778 137.448 49.3877C137.448 49.5244 137.398 49.791 137.297 50.1875C137.202 50.5794 137.042 51.124 136.819 51.8213L135.739 55.2256L137.099 55L137.167 54.7881L137.502 53.8379C137.548 53.7057 137.612 53.5462 137.694 53.3594C137.78 53.1725 137.885 52.9492 138.008 52.6895C138.232 52.2155 138.4 51.8646 138.514 51.6367C138.728 51.2357 138.945 50.8757 139.163 50.5566C139.382 50.2331 139.599 49.9574 139.813 49.7295C140.027 49.5016 140.23 49.3239 140.421 49.1963C140.613 49.0687 140.788 49.0049 140.948 49.0049C141.107 49.0049 141.232 49.0596 141.324 49.1689C141.419 49.2783 141.467 49.4196 141.467 49.5928C141.467 49.6976 141.449 49.8229 141.412 49.9688C141.381 50.11 141.315 50.3356 141.214 50.6455L140.291 53.585C140.223 53.7992 140.173 53.9769 140.141 54.1182C140.109 54.2594 140.093 54.3757 140.093 54.4668C140.093 54.6719 140.15 54.8382 140.264 54.9658C140.383 55.0934 140.54 55.1572 140.736 55.1572C140.977 55.1572 141.237 55.0866 141.515 54.9453C141.798 54.804 142.089 54.6035 142.39 54.3438C142.586 54.166 142.784 53.9792 142.985 53.7832C143.185 53.5872 143.393 53.373 143.607 53.1406C143.785 52.9447 143.93 52.7783 144.044 52.6416C144.163 52.5049 144.27 52.375 144.366 52.252C144.466 52.1243 144.562 51.999 144.653 51.876C144.748 51.7484 144.858 51.5957 144.981 51.418L145.104 51.0352ZM151.931 44.9375L151.74 44.8145C151.589 45.0104 151.453 45.1517 151.33 45.2383C151.211 45.3203 151.077 45.3613 150.926 45.3613C150.821 45.3613 150.728 45.3454 150.646 45.3135C150.564 45.277 150.416 45.195 150.202 45.0674C150.051 44.9717 149.924 44.9079 149.819 44.876C149.719 44.8441 149.607 44.8281 149.484 44.8281C149.233 44.8281 148.998 44.9124 148.78 45.0811C148.561 45.2497 148.381 45.4867 148.24 45.792L148.404 45.8945C148.554 45.6986 148.691 45.5618 148.814 45.4844C148.942 45.4023 149.094 45.3613 149.272 45.3613C149.386 45.3613 149.482 45.375 149.559 45.4023C149.641 45.4297 149.78 45.5003 149.976 45.6143C150.322 45.8011 150.598 45.8945 150.803 45.8945C151.241 45.8945 151.617 45.5755 151.931 44.9375ZM152.136 51.0352C152.036 51.1764 151.917 51.3359 151.781 51.5137C151.644 51.6914 151.503 51.8691 151.357 52.0469C151.216 52.2246 151.07 52.4001 150.919 52.5732C150.769 52.7464 150.635 52.9014 150.516 53.0381C149.992 53.6169 149.502 54.0361 149.046 54.2959C148.595 54.5511 148.133 54.6787 147.659 54.6787C147.517 54.6787 147.413 54.6719 147.344 54.6582C147.28 54.6445 147.198 54.6081 147.098 54.5488C147.472 54.2982 147.825 53.986 148.158 53.6123C148.495 53.2386 148.791 52.8421 149.046 52.4229C149.306 52.0036 149.509 51.5843 149.655 51.165C149.805 50.7458 149.88 50.3584 149.88 50.0029C149.88 49.5244 149.755 49.1507 149.504 48.8818C149.254 48.613 148.905 48.4785 148.458 48.4785C147.597 48.4785 146.756 48.875 145.936 49.668C145.626 49.9642 145.346 50.2786 145.095 50.6113C144.845 50.944 144.633 51.2812 144.459 51.623C144.286 51.9603 144.152 52.2975 144.056 52.6348C143.965 52.972 143.919 53.2933 143.919 53.5986C143.919 54.0863 144.042 54.4691 144.289 54.7471C144.539 55.0205 144.883 55.1572 145.321 55.1572C145.562 55.1572 145.792 55.123 146.011 55.0547C146.23 54.9909 146.476 54.8929 146.749 54.7607C146.918 54.8656 147.057 54.9316 147.166 54.959C147.28 54.9863 147.426 55 147.604 55C148.087 55 148.57 54.8519 149.053 54.5557C149.541 54.2549 150.079 53.7786 150.666 53.127C151.191 52.5482 151.639 51.9785 152.013 51.418L152.136 51.0352ZM148.821 50.4062C148.821 50.7435 148.766 51.1035 148.657 51.4863C148.552 51.8691 148.408 52.2451 148.226 52.6143C148.044 52.9834 147.83 53.3275 147.583 53.6465C147.342 53.9609 147.087 54.2207 146.818 54.4258C146.239 54.0247 145.95 53.3571 145.95 52.4229C145.95 52.0218 146.002 51.6185 146.107 51.2129C146.216 50.8073 146.369 50.4404 146.565 50.1123C146.77 49.7568 146.989 49.4834 147.221 49.292C147.458 49.1006 147.697 49.0049 147.939 49.0049C148.208 49.0049 148.422 49.1348 148.581 49.3945C148.741 49.6497 148.821 49.987 148.821 50.4062ZM147.324 49.0527C147.119 49.1895 146.955 49.3262 146.831 49.4629C146.708 49.5996 146.583 49.7751 146.456 49.9893C146.209 50.3812 146.02 50.8164 145.888 51.2949C145.761 51.7689 145.697 52.2474 145.697 52.7305C145.697 53.168 145.754 53.528 145.868 53.8105C145.986 54.0885 146.187 54.3506 146.469 54.5967C146.364 54.6423 146.282 54.6696 146.223 54.6787C146.164 54.6878 146.086 54.6924 145.991 54.6924C145.234 54.6924 144.856 54.248 144.856 53.3594C144.856 53.054 144.906 52.7031 145.006 52.3066C145.111 51.9102 145.252 51.516 145.43 51.124C145.59 50.7777 145.765 50.4632 145.956 50.1807C146.148 49.8936 146.351 49.6475 146.565 49.4424C146.688 49.3285 146.795 49.2396 146.886 49.1758C146.982 49.112 147.119 49.0368 147.296 48.9502L147.324 49.0527ZM150.372 47.6924L149.552 45.7168L147.071 47.6377L147.214 47.8359L149.238 46.7012L150.167 47.8359L150.372 47.6924ZM155.962 51.0352C155.917 51.1126 155.874 51.1787 155.832 51.2334C155.796 51.2881 155.764 51.3359 155.737 51.377C155.627 51.5319 155.491 51.7096 155.327 51.9102C155.163 52.1107 154.987 52.318 154.8 52.5322C154.613 52.7419 154.424 52.9492 154.233 53.1543C154.041 53.3594 153.861 53.5462 153.693 53.7148C153.169 54.2161 152.736 54.4668 152.394 54.4668C152.189 54.4668 152.086 54.3643 152.086 54.1592C152.086 54.1045 152.1 54.0065 152.127 53.8652C152.155 53.724 152.191 53.5599 152.237 53.373C152.282 53.1862 152.335 52.9811 152.394 52.7578C152.458 52.5345 152.526 52.3112 152.599 52.0879L153.734 48.4785L151.396 48.6699L151.328 48.9092H151.512C151.845 48.9092 152.073 48.9502 152.196 49.0322C152.319 49.1097 152.38 49.2555 152.38 49.4697C152.38 49.6292 152.342 49.8594 152.264 50.1602C152.191 50.4564 152.061 50.8984 151.874 51.4863L151.314 53.2773C151.209 53.6055 151.136 53.8516 151.095 54.0156C151.054 54.1751 151.034 54.3027 151.034 54.3984C151.034 54.6217 151.095 54.804 151.218 54.9453C151.346 55.0866 151.508 55.1572 151.704 55.1572C151.927 55.1572 152.191 55.0752 152.497 54.9111C152.802 54.7471 153.103 54.5283 153.399 54.2549C153.8 53.8949 154.215 53.4642 154.643 52.9629C155.076 52.4616 155.479 51.9466 155.853 51.418L155.962 51.0352ZM154.397 46.8242C154.397 46.6191 154.335 46.4574 154.212 46.3389C154.094 46.2158 153.932 46.1543 153.727 46.1543C153.522 46.1543 153.353 46.2227 153.221 46.3594C153.089 46.4915 153.023 46.6647 153.023 46.8789C153.023 47.0749 153.084 47.2321 153.207 47.3506C153.331 47.4691 153.499 47.5283 153.713 47.5283C153.909 47.5283 154.071 47.4622 154.199 47.3301C154.331 47.1979 154.397 47.0293 154.397 46.8242ZM163.772 50.3926C163.772 50.6478 163.72 50.9235 163.615 51.2197C163.515 51.5114 163.353 51.8532 163.129 52.2451C162.738 52.915 162.33 53.4528 161.906 53.8584C161.482 54.264 161.106 54.4668 160.778 54.4668C160.536 54.4668 160.347 54.3688 160.211 54.1729C160.078 53.9769 160.012 53.7057 160.012 53.3594C160.012 53.2956 160.015 53.234 160.019 53.1748C160.024 53.111 160.03 53.0426 160.04 52.9697C160.085 52.6234 160.167 52.2793 160.286 51.9375C160.409 51.5911 160.564 51.2493 160.751 50.9121C161.425 49.6908 162.097 49.0801 162.767 49.0801C163.068 49.0801 163.309 49.2031 163.492 49.4492C163.679 49.6953 163.772 50.0098 163.772 50.3926ZM167.416 47.2139L167.566 46.7354H166.253L166.575 45.7031L166.896 44.6846L167.094 44.0967L164.743 44.2881L164.674 44.541C164.729 44.541 164.779 44.5433 164.825 44.5479C164.87 44.5524 164.907 44.5547 164.934 44.5547C165.476 44.5547 165.748 44.7233 165.748 45.0605C165.748 45.2292 165.707 45.4661 165.625 45.7715L165.495 46.2363L165.344 46.7354H162.487L162.336 47.2139H165.208L164.251 50.4473H164.086C164.123 50.2832 164.146 50.1602 164.155 50.0781C164.164 49.9915 164.169 49.9004 164.169 49.8047C164.169 49.4219 164.086 49.1211 163.922 48.9023C163.758 48.6836 163.542 48.5742 163.273 48.5742C162.945 48.5742 162.594 48.6722 162.22 48.8682C161.847 49.0641 161.482 49.3444 161.127 49.709C160.812 50.0371 160.525 50.3743 160.265 50.7207C160.01 51.0625 159.791 51.4089 159.609 51.7598C159.427 52.1107 159.285 52.4525 159.185 52.7852C159.089 53.1133 159.042 53.4232 159.042 53.7148C159.042 54.1432 159.153 54.4919 159.377 54.7607C159.604 55.0251 159.894 55.1572 160.245 55.1572C160.564 55.1572 160.896 55.0547 161.243 54.8496C161.589 54.64 161.924 54.3529 162.248 53.9883C162.576 53.6191 162.883 53.1771 163.17 52.6621C163.462 52.1471 163.715 51.5866 163.929 50.9805H164.086L163.259 53.6123C163.182 53.8538 163.127 54.0384 163.095 54.166C163.063 54.2936 163.047 54.4076 163.047 54.5078C163.047 54.7038 163.098 54.861 163.198 54.9795C163.303 55.098 163.444 55.1572 163.622 55.1572C163.918 55.1572 164.248 55.0501 164.613 54.8359C164.977 54.6172 165.399 54.2845 165.878 53.8379C165.978 53.7331 166.083 53.6237 166.192 53.5098C166.306 53.3913 166.429 53.2682 166.561 53.1406C166.739 52.9538 166.889 52.792 167.012 52.6553C167.14 52.5186 167.256 52.3887 167.361 52.2656C167.47 52.138 167.575 52.0104 167.675 51.8828C167.78 51.7507 167.899 51.5957 168.031 51.418L168.154 51.0352C168.008 51.2311 167.876 51.4043 167.757 51.5547C167.643 51.7051 167.53 51.8464 167.416 51.9785C167.302 52.1061 167.179 52.2406 167.046 52.3818C166.919 52.5231 166.766 52.6826 166.588 52.8604C165.563 53.9313 164.827 54.4668 164.38 54.4668C164.171 54.4668 164.066 54.3506 164.066 54.1182C164.066 54.0635 164.08 53.9723 164.107 53.8447C164.139 53.7171 164.178 53.5713 164.223 53.4072L164.531 52.2451L166.103 47.2139H167.416ZM176.075 51.0352C176.02 51.1126 175.975 51.1764 175.938 51.2266C175.902 51.2767 175.87 51.3223 175.842 51.3633C175.514 51.7917 175.159 52.2155 174.776 52.6348C174.393 53.054 174.029 53.4141 173.682 53.7148C173.386 53.9837 173.135 54.1774 172.93 54.2959C172.725 54.4098 172.534 54.4668 172.356 54.4668C172.151 54.4668 172.048 54.3643 172.048 54.1592C172.048 54.0954 172.064 53.986 172.096 53.8311C172.128 53.6761 172.171 53.4915 172.226 53.2773C172.285 53.0632 172.349 52.8307 172.418 52.5801C172.486 52.3249 172.563 52.0674 172.65 51.8076L173.122 50.2969C173.217 49.9961 173.322 49.6794 173.436 49.3467C173.555 49.0094 173.662 48.7201 173.757 48.4785L172.664 48.6289L172.076 50.4609L171.932 50.4473C171.982 50.2604 172.012 50.1169 172.021 50.0166C172.03 49.9118 172.035 49.7819 172.035 49.627C172.035 48.8613 171.729 48.4785 171.119 48.4785C170.421 48.4785 169.699 48.8796 168.952 49.6816C168.3 50.3789 167.794 51.0785 167.434 51.7803C167.074 52.4821 166.894 53.1224 166.894 53.7012C166.894 54.1387 167.004 54.4919 167.222 54.7607C167.441 55.0251 167.728 55.1572 168.084 55.1572C168.412 55.1572 168.747 55.0524 169.088 54.8428C169.435 54.6286 169.774 54.3369 170.107 53.9678C170.44 53.5941 170.75 53.1497 171.037 52.6348C171.328 52.1198 171.577 51.5592 171.782 50.9531L171.919 50.9805L171.18 53.3184C171.085 53.6009 171.018 53.8242 170.982 53.9883C170.946 54.1478 170.927 54.2754 170.927 54.3711C170.927 54.6126 170.989 54.804 171.112 54.9453C171.24 55.0866 171.41 55.1572 171.625 55.1572C171.866 55.1572 172.142 55.082 172.452 54.9316C172.762 54.7812 173.065 54.5762 173.361 54.3164C173.726 53.9883 174.12 53.5827 174.544 53.0996C174.967 52.612 175.38 52.1198 175.781 51.623L175.952 51.418L176.075 51.0352ZM171.597 50.2832C171.597 50.6113 171.545 50.9372 171.44 51.2607C171.34 51.5798 171.169 51.9489 170.927 52.3682C170.545 53.0199 170.148 53.5326 169.738 53.9062C169.328 54.2799 168.945 54.4668 168.589 54.4668C168.366 54.4668 168.188 54.3711 168.056 54.1797C167.924 53.9883 167.858 53.7194 167.858 53.373C167.858 53.3275 167.86 53.2773 167.865 53.2227C167.869 53.168 167.876 53.1156 167.885 53.0654C167.945 52.555 168.068 52.056 168.254 51.5684C168.441 51.0762 168.662 50.641 168.918 50.2627C169.173 49.8844 169.451 49.5814 169.752 49.3535C170.057 49.1211 170.355 49.0049 170.647 49.0049C170.934 49.0049 171.164 49.1211 171.338 49.3535C171.511 49.5814 171.597 49.8913 171.597 50.2832ZM183.941 51.0352C183.613 51.5137 183.271 51.9626 182.916 52.3818C182.56 52.8011 182.218 53.1657 181.89 53.4756C181.567 53.7809 181.264 54.0225 180.981 54.2002C180.703 54.3779 180.475 54.4668 180.298 54.4668C180.102 54.4668 180.004 54.3643 180.004 54.1592C180.004 54.0954 180.02 53.9769 180.051 53.8037C180.083 53.6305 180.124 53.4642 180.174 53.3047L180.523 52.1016L181.097 50.2559L181.631 48.7246L181.713 48.4785L180.455 48.6973C180.35 49.0892 180.213 49.4902 180.045 49.9004C179.876 50.306 179.657 50.7822 179.388 51.3291C179.201 51.6937 179.028 52.0218 178.869 52.3135C178.709 52.6006 178.55 52.8581 178.39 53.0859C178.235 53.3092 178.076 53.512 177.912 53.6943C177.748 53.8721 177.577 54.0407 177.399 54.2002C177.139 54.4326 176.845 54.5739 176.517 54.624H176.476C176.317 54.624 176.189 54.5693 176.093 54.46C176.002 54.346 175.957 54.1956 175.957 54.0088C175.957 53.9222 175.97 53.8174 175.998 53.6943C176.03 53.5667 176.087 53.373 176.169 53.1133L177.638 48.4785L175.273 48.6973L175.205 48.9365H175.341C175.697 48.9365 175.941 48.9753 176.073 49.0527C176.21 49.1257 176.278 49.2555 176.278 49.4424C176.278 49.5153 176.273 49.5973 176.264 49.6885C176.255 49.7751 176.237 49.8708 176.21 49.9756C176.21 49.9847 176.198 50.0348 176.175 50.126C176.153 50.2126 176.114 50.3493 176.059 50.5361L175.834 51.2744L175.649 51.876L175.485 52.3818C175.462 52.4092 175.437 52.473 175.41 52.5732C175.382 52.6689 175.346 52.7965 175.3 52.9561C175.196 53.3298 175.123 53.6055 175.082 53.7832C175.041 53.9609 175.02 54.1045 175.02 54.2139C175.02 54.5146 175.1 54.7471 175.259 54.9111C175.419 55.0752 175.633 55.1572 175.902 55.1572C177.114 55.1572 178.308 53.9564 179.484 51.5547C179.707 51.0898 179.917 50.6227 180.113 50.1533C180.309 49.6794 180.473 49.2236 180.605 48.7861H180.66L179.347 52.9561C179.242 53.2933 179.16 53.5553 179.101 53.7422C179.042 53.929 179.001 54.0452 178.978 54.0908C178.96 54.1364 178.951 54.1865 178.951 54.2412C178.951 54.2913 178.951 54.3438 178.951 54.3984C178.951 54.64 179.008 54.8268 179.122 54.959C179.236 55.0911 179.395 55.1572 179.6 55.1572C179.933 55.1572 180.339 54.9863 180.817 54.6445C181.3 54.3027 181.84 53.8014 182.437 53.1406C182.72 52.8398 182.973 52.5505 183.196 52.2725C183.419 51.9899 183.629 51.7051 183.825 51.418L183.941 51.0352ZM191.053 50.9395C190.707 51.0124 190.406 51.0648 190.151 51.0967C189.896 51.124 189.613 51.1377 189.303 51.1377H187.806L187.259 51.9785C187.537 51.9193 187.818 51.876 188.1 51.8486C188.387 51.8213 188.704 51.8076 189.051 51.8076H190.493L191.053 50.9395ZM206.034 51.0352C205.902 51.2129 205.788 51.3678 205.692 51.5C205.601 51.6322 205.501 51.7643 205.391 51.8965C205.287 52.0241 205.168 52.1631 205.036 52.3135C204.908 52.4639 204.742 52.6462 204.537 52.8604C204.031 53.4209 203.605 53.8288 203.259 54.084C202.917 54.3392 202.625 54.4668 202.384 54.4668C202.179 54.4668 202.076 54.3551 202.076 54.1318C202.076 54.0498 202.103 53.8994 202.158 53.6807C202.213 53.4574 202.315 53.0951 202.466 52.5938L203.122 50.3652C203.254 49.9186 203.32 49.6019 203.32 49.415C203.32 49.1234 203.245 48.8955 203.095 48.7314C202.944 48.5628 202.739 48.4785 202.479 48.4785C202.096 48.4785 201.702 48.613 201.297 48.8818C200.891 49.1507 200.492 49.5495 200.1 50.0781C199.708 50.6068 199.33 51.2585 198.966 52.0332C198.601 52.8079 198.259 53.6989 197.94 54.7061L197.872 54.9316H197.694L199.69 48.4785L197.523 48.6699L197.366 48.9229H197.708C198.154 48.9229 198.378 49.0778 198.378 49.3877C198.378 49.5244 198.328 49.791 198.227 50.1875C198.132 50.5794 197.972 51.124 197.749 51.8213L196.669 55.2256L198.029 55L198.097 54.7881L198.432 53.8379C198.478 53.7057 198.542 53.5462 198.624 53.3594C198.71 53.1725 198.815 52.9492 198.938 52.6895C199.162 52.2155 199.33 51.8646 199.444 51.6367C199.658 51.2357 199.875 50.8757 200.094 50.5566C200.312 50.2331 200.529 49.9574 200.743 49.7295C200.957 49.5016 201.16 49.3239 201.351 49.1963C201.543 49.0687 201.718 49.0049 201.878 49.0049C202.037 49.0049 202.163 49.0596 202.254 49.1689C202.349 49.2783 202.397 49.4196 202.397 49.5928C202.397 49.6976 202.379 49.8229 202.343 49.9688C202.311 50.11 202.245 50.3356 202.144 50.6455L201.221 53.585C201.153 53.7992 201.103 53.9769 201.071 54.1182C201.039 54.2594 201.023 54.3757 201.023 54.4668C201.023 54.6719 201.08 54.8382 201.194 54.9658C201.313 55.0934 201.47 55.1572 201.666 55.1572C201.907 55.1572 202.167 55.0866 202.445 54.9453C202.728 54.804 203.019 54.6035 203.32 54.3438C203.516 54.166 203.714 53.9792 203.915 53.7832C204.115 53.5872 204.323 53.373 204.537 53.1406C204.715 52.9447 204.86 52.7783 204.974 52.6416C205.093 52.5049 205.2 52.375 205.296 52.252C205.396 52.1243 205.492 51.999 205.583 51.876C205.679 51.7484 205.788 51.5957 205.911 51.418L206.034 51.0352ZM209.901 51.0352C209.856 51.1126 209.812 51.1787 209.771 51.2334C209.735 51.2881 209.703 51.3359 209.676 51.377C209.566 51.5319 209.43 51.7096 209.265 51.9102C209.101 52.1107 208.926 52.318 208.739 52.5322C208.552 52.7419 208.363 52.9492 208.172 53.1543C207.98 53.3594 207.8 53.5462 207.632 53.7148C207.108 54.2161 206.675 54.4668 206.333 54.4668C206.128 54.4668 206.025 54.3643 206.025 54.1592C206.025 54.1045 206.039 54.0065 206.066 53.8652C206.094 53.724 206.13 53.5599 206.176 53.373C206.221 53.1862 206.274 52.9811 206.333 52.7578C206.397 52.5345 206.465 52.3112 206.538 52.0879L207.673 48.4785L205.335 48.6699L205.266 48.9092H205.451C205.784 48.9092 206.012 48.9502 206.135 49.0322C206.258 49.1097 206.319 49.2555 206.319 49.4697C206.319 49.6292 206.28 49.8594 206.203 50.1602C206.13 50.4564 206 50.8984 205.813 51.4863L205.253 53.2773C205.148 53.6055 205.075 53.8516 205.034 54.0156C204.993 54.1751 204.973 54.3027 204.973 54.3984C204.973 54.6217 205.034 54.804 205.157 54.9453C205.285 55.0866 205.446 55.1572 205.642 55.1572C205.866 55.1572 206.13 55.0752 206.435 54.9111C206.741 54.7471 207.042 54.5283 207.338 54.2549C207.739 53.8949 208.153 53.4642 208.582 52.9629C209.015 52.4616 209.418 51.9466 209.792 51.418L209.901 51.0352ZM208.336 46.8242C208.336 46.6191 208.274 46.4574 208.151 46.3389C208.033 46.2158 207.871 46.1543 207.666 46.1543C207.461 46.1543 207.292 46.2227 207.16 46.3594C207.028 46.4915 206.962 46.6647 206.962 46.8789C206.962 47.0749 207.023 47.2321 207.146 47.3506C207.269 47.4691 207.438 47.5283 207.652 47.5283C207.848 47.5283 208.01 47.4622 208.138 47.3301C208.27 47.1979 208.336 47.0293 208.336 46.8242ZM214.965 45.915L213.775 44.0215L213.14 44.9785L214.794 46.1133L214.965 45.915ZM215.751 51.0352C215.277 51.6641 214.826 52.2109 214.397 52.6758C213.969 53.1406 213.559 53.5189 213.167 53.8105C212.839 54.0521 212.476 54.248 212.08 54.3984C211.683 54.5488 211.307 54.624 210.952 54.624C210.045 54.624 209.592 54.1751 209.592 53.2773C209.592 53.168 209.594 53.0677 209.599 52.9766C209.603 52.8809 209.614 52.7897 209.633 52.7031C209.655 52.612 209.678 52.5186 209.701 52.4229C209.724 52.3226 209.758 52.2064 209.804 52.0742C209.981 52.1198 210.12 52.1494 210.221 52.1631C210.325 52.1768 210.467 52.1836 210.644 52.1836C211.018 52.1836 211.349 52.1335 211.636 52.0332C211.927 51.9284 212.235 51.7507 212.558 51.5C212.964 51.181 213.279 50.8438 213.502 50.4883C213.725 50.1283 213.837 49.7842 213.837 49.4561C213.837 49.1553 213.752 48.9183 213.584 48.7451C213.415 48.5674 213.187 48.4785 212.9 48.4785C212.162 48.4785 211.424 48.8363 210.685 49.5518C210.052 50.1579 209.551 50.8164 209.182 51.5273C208.812 52.2383 208.628 52.9014 208.628 53.5166C208.628 54.0407 208.78 54.4463 209.086 54.7334C209.396 55.016 209.835 55.1572 210.405 55.1572C210.852 55.1572 211.287 55.0843 211.711 54.9385C212.139 54.7926 212.565 54.5693 212.989 54.2686C213.413 53.9632 213.841 53.5758 214.274 53.1064C214.712 52.6325 215.163 52.0697 215.628 51.418L215.751 51.0352ZM213.01 49.5654C213.01 49.8024 212.966 50.0553 212.88 50.3242C212.798 50.5931 212.682 50.8415 212.531 51.0693C212.189 51.6162 211.775 51.8896 211.287 51.8896C211.073 51.8896 210.854 51.8532 210.631 51.7803C210.407 51.7074 210.193 51.6048 209.988 51.4727C210.052 51.304 210.111 51.1605 210.166 51.042C210.225 50.9189 210.278 50.8096 210.323 50.7139C210.369 50.6136 210.417 50.5202 210.467 50.4336C210.521 50.3424 210.585 50.2445 210.658 50.1396C210.927 49.7295 211.225 49.4014 211.554 49.1553C211.882 48.9092 212.171 48.7861 212.422 48.7861C212.599 48.7861 212.741 48.8568 212.846 48.998C212.955 49.1348 213.01 49.3239 213.01 49.5654ZM214.657 47.6924L213.83 45.7168L211.369 47.6377L211.492 47.8359L213.522 46.7012L214.466 47.8359L214.657 47.6924ZM227.602 51.0352C227.265 51.5046 226.921 51.9466 226.57 52.3613C226.224 52.776 225.889 53.1429 225.565 53.4619C225.242 53.7764 224.95 54.0247 224.69 54.207C224.431 54.3893 224.226 54.4805 224.075 54.4805C223.87 54.4805 223.768 54.3643 223.768 54.1318C223.768 54.0771 223.772 54.0361 223.781 54.0088C223.79 53.8857 223.827 53.708 223.891 53.4756C223.968 53.234 224.023 53.0426 224.055 52.9014C224.087 52.7601 224.107 52.6803 224.116 52.6621L224.718 50.7412C224.772 50.5544 224.818 50.3994 224.854 50.2764C224.895 50.1488 224.927 50.0348 224.95 49.9346C224.973 49.8298 224.987 49.7363 224.991 49.6543C224.996 49.5677 224.998 49.4743 224.998 49.374C224.998 49.1006 224.92 48.8841 224.766 48.7246C224.611 48.5605 224.408 48.4785 224.157 48.4785C223.793 48.4785 223.417 48.6289 223.029 48.9297C222.642 49.2259 222.252 49.652 221.86 50.208C221.468 50.7594 221.086 51.4362 220.712 52.2383C220.338 53.0358 219.985 53.9336 219.652 54.9316H219.468L220.801 50.7275C220.883 50.4587 220.947 50.1989 220.992 49.9482C221.042 49.693 221.067 49.4766 221.067 49.2988C221.067 49.0664 220.988 48.8727 220.828 48.7178C220.669 48.5583 220.468 48.4785 220.226 48.4785C219.534 48.4785 218.827 48.9639 218.107 49.9346C217.875 50.2308 217.661 50.5452 217.465 50.8779C217.269 51.2106 217.068 51.5866 216.863 52.0059C216.79 52.1654 216.717 52.3271 216.644 52.4912C216.576 52.6507 216.505 52.8148 216.433 52.9834C216.364 53.1338 216.305 53.2728 216.255 53.4004C216.205 53.5234 216.15 53.6579 216.091 53.8037C216.036 53.9495 215.977 54.1113 215.913 54.2891C215.849 54.4622 215.769 54.6764 215.674 54.9316H215.523L217.506 48.4785L215.257 48.6836L215.182 48.9229H215.462C215.717 48.9229 215.899 48.9593 216.009 49.0322C216.123 49.1006 216.18 49.2145 216.18 49.374C216.18 49.4469 216.168 49.5495 216.145 49.6816C216.123 49.8092 216.091 49.9596 216.05 50.1328C216.013 50.306 215.968 50.4883 215.913 50.6797C215.858 50.8711 215.801 51.0648 215.742 51.2607L214.498 55.1982L215.872 55C215.908 54.8678 215.94 54.7562 215.968 54.665C215.995 54.5693 216.027 54.4736 216.063 54.3779C216.104 54.2777 216.148 54.1683 216.193 54.0498C216.239 53.9268 216.298 53.7718 216.371 53.585C216.485 53.3252 216.583 53.0951 216.665 52.8945C216.752 52.694 216.836 52.5072 216.918 52.334C217.004 52.1608 217.087 51.9967 217.164 51.8418C217.246 51.6868 217.333 51.5273 217.424 51.3633C217.647 50.9395 217.861 50.5817 218.066 50.29C218.271 49.9938 218.497 49.7204 218.743 49.4697C219.048 49.1598 219.347 49.0049 219.639 49.0049C219.953 49.0049 220.11 49.1781 220.11 49.5244C220.11 49.6475 220.067 49.8776 219.98 50.2148C219.898 50.5475 219.789 50.9395 219.652 51.3906L218.893 53.7969L218.559 54.8154L218.449 55.1982L219.816 55C220.072 54.1979 220.365 53.4323 220.698 52.7031C221.035 51.974 221.377 51.3382 221.724 50.7959C222.07 50.249 222.409 49.8138 222.742 49.4902C223.079 49.1667 223.373 49.0049 223.624 49.0049C223.756 49.0049 223.863 49.0573 223.945 49.1621C224.032 49.2669 224.075 49.3968 224.075 49.5518C224.075 49.6292 224.05 49.7682 224 49.9688C223.954 50.1693 223.9 50.3675 223.836 50.5635L223.18 52.6621L222.981 53.2637C222.881 53.5918 222.81 53.8424 222.769 54.0156C222.733 54.1888 222.715 54.3438 222.715 54.4805C222.715 54.6855 222.767 54.8496 222.872 54.9727C222.981 55.0957 223.125 55.1572 223.303 55.1572C223.535 55.1572 223.811 55.0661 224.13 54.8838C224.449 54.7015 224.788 54.4463 225.148 54.1182C225.513 53.79 225.893 53.3981 226.29 52.9424C226.686 52.4867 227.081 51.9785 227.473 51.418L227.602 51.0352ZM236.15 48.6289H233.676L234.332 46.5576L233.156 46.8652L233.115 47.0771C233.083 47.2275 233.056 47.362 233.033 47.4805C233.01 47.5944 232.99 47.6969 232.972 47.7881L232.808 48.4648L232.76 48.6289H231.42L231.194 48.9639C231.308 48.9548 231.406 48.9456 231.488 48.9365C231.57 48.9274 231.652 48.9206 231.734 48.916C231.821 48.9115 231.914 48.9069 232.015 48.9023C232.119 48.8978 232.247 48.891 232.397 48.8818L232.691 48.8682L231.352 53.209C231.301 53.3685 231.26 53.5417 231.229 53.7285C231.197 53.9154 231.181 54.0726 231.181 54.2002C231.181 54.8382 231.461 55.1572 232.021 55.1572C232.29 55.1572 232.548 55.082 232.794 54.9316C233.008 54.7904 233.254 54.583 233.532 54.3096C233.815 54.0316 234.179 53.6328 234.626 53.1133C234.94 52.7487 235.207 52.4297 235.426 52.1562C235.649 51.8783 235.84 51.6322 236 51.418L236.123 51.0352C235.909 51.3359 235.69 51.623 235.467 51.8965C235.243 52.1654 234.986 52.457 234.694 52.7715C234.357 53.127 234.061 53.4277 233.806 53.6738C233.55 53.9154 233.316 54.109 233.102 54.2549C233.015 54.3141 232.919 54.3643 232.814 54.4053C232.714 54.4463 232.614 54.4668 232.514 54.4668H232.479C232.238 54.4668 232.117 54.3324 232.117 54.0635C232.117 54.0179 232.119 53.9701 232.124 53.9199C232.129 53.8652 232.14 53.7969 232.158 53.7148C232.176 53.6283 232.204 53.5212 232.24 53.3936C232.281 53.2614 232.329 53.0973 232.384 52.9014L232.999 50.7891L233.601 48.8682H234.038C234.289 48.8682 234.496 48.8704 234.66 48.875C234.824 48.8796 234.972 48.8841 235.104 48.8887C235.241 48.8932 235.371 48.9023 235.494 48.916C235.622 48.9297 235.77 48.9456 235.938 48.9639L236.15 48.6289ZM240.018 51.0352C239.972 51.1126 239.929 51.1787 239.888 51.2334C239.851 51.2881 239.819 51.3359 239.792 51.377C239.683 51.5319 239.546 51.7096 239.382 51.9102C239.218 52.1107 239.042 52.318 238.856 52.5322C238.669 52.7419 238.48 52.9492 238.288 53.1543C238.097 53.3594 237.917 53.5462 237.748 53.7148C237.224 54.2161 236.791 54.4668 236.449 54.4668C236.244 54.4668 236.142 54.3643 236.142 54.1592C236.142 54.1045 236.155 54.0065 236.183 53.8652C236.21 53.724 236.246 53.5599 236.292 53.373C236.338 53.1862 236.39 52.9811 236.449 52.7578C236.513 52.5345 236.581 52.3112 236.654 52.0879L237.789 48.4785L235.451 48.6699L235.383 48.9092H235.567C235.9 48.9092 236.128 48.9502 236.251 49.0322C236.374 49.1097 236.436 49.2555 236.436 49.4697C236.436 49.6292 236.397 49.8594 236.319 50.1602C236.246 50.4564 236.117 50.8984 235.93 51.4863L235.369 53.2773C235.264 53.6055 235.191 53.8516 235.15 54.0156C235.109 54.1751 235.089 54.3027 235.089 54.3984C235.089 54.6217 235.15 54.804 235.273 54.9453C235.401 55.0866 235.563 55.1572 235.759 55.1572C235.982 55.1572 236.246 55.0752 236.552 54.9111C236.857 54.7471 237.158 54.5283 237.454 54.2549C237.855 53.8949 238.27 53.4642 238.698 52.9629C239.131 52.4616 239.535 51.9466 239.908 51.418L240.018 51.0352ZM238.452 46.8242C238.452 46.6191 238.391 46.4574 238.268 46.3389C238.149 46.2158 237.987 46.1543 237.782 46.1543C237.577 46.1543 237.409 46.2227 237.276 46.3594C237.144 46.4915 237.078 46.6647 237.078 46.8789C237.078 47.0749 237.14 47.2321 237.263 47.3506C237.386 47.4691 237.554 47.5283 237.769 47.5283C237.965 47.5283 238.126 47.4622 238.254 47.3301C238.386 47.1979 238.452 47.0293 238.452 46.8242ZM248.082 51.0352C247.95 51.2129 247.836 51.3678 247.74 51.5C247.649 51.6322 247.549 51.7643 247.44 51.8965C247.335 52.0241 247.216 52.1631 247.084 52.3135C246.956 52.4639 246.79 52.6462 246.585 52.8604C246.079 53.4209 245.653 53.8288 245.307 54.084C244.965 54.3392 244.673 54.4668 244.432 54.4668C244.227 54.4668 244.124 54.3551 244.124 54.1318C244.124 54.0498 244.151 53.8994 244.206 53.6807C244.261 53.4574 244.363 53.0951 244.514 52.5938L245.17 50.3652C245.302 49.9186 245.368 49.6019 245.368 49.415C245.368 49.1234 245.293 48.8955 245.143 48.7314C244.992 48.5628 244.787 48.4785 244.527 48.4785C244.145 48.4785 243.75 48.613 243.345 48.8818C242.939 49.1507 242.54 49.5495 242.149 50.0781C241.757 50.6068 241.378 51.2585 241.014 52.0332C240.649 52.8079 240.307 53.6989 239.988 54.7061L239.92 54.9316H239.742L241.738 48.4785L239.571 48.6699L239.414 48.9229H239.756C240.203 48.9229 240.426 49.0778 240.426 49.3877C240.426 49.5244 240.376 49.791 240.275 50.1875C240.18 50.5794 240.02 51.124 239.797 51.8213L238.717 55.2256L240.077 55L240.146 54.7881L240.481 53.8379C240.526 53.7057 240.59 53.5462 240.672 53.3594C240.759 53.1725 240.863 52.9492 240.986 52.6895C241.21 52.2155 241.378 51.8646 241.492 51.6367C241.706 51.2357 241.923 50.8757 242.142 50.5566C242.36 50.2331 242.577 49.9574 242.791 49.7295C243.005 49.5016 243.208 49.3239 243.399 49.1963C243.591 49.0687 243.766 49.0049 243.926 49.0049C244.085 49.0049 244.211 49.0596 244.302 49.1689C244.398 49.2783 244.445 49.4196 244.445 49.5928C244.445 49.6976 244.427 49.8229 244.391 49.9688C244.359 50.11 244.293 50.3356 244.192 50.6455L243.27 53.585C243.201 53.7992 243.151 53.9769 243.119 54.1182C243.087 54.2594 243.071 54.3757 243.071 54.4668C243.071 54.6719 243.128 54.8382 243.242 54.9658C243.361 55.0934 243.518 55.1572 243.714 55.1572C243.955 55.1572 244.215 55.0866 244.493 54.9453C244.776 54.804 245.067 54.6035 245.368 54.3438C245.564 54.166 245.762 53.9792 245.963 53.7832C246.163 53.5872 246.371 53.373 246.585 53.1406C246.763 52.9447 246.909 52.7783 247.023 52.6416C247.141 52.5049 247.248 52.375 247.344 52.252C247.444 52.1243 247.54 51.999 247.631 51.876C247.727 51.7484 247.836 51.5957 247.959 51.418L248.082 51.0352ZM258.387 51.0352C258.127 51.418 257.867 51.7643 257.608 52.0742C257.352 52.3841 257.063 52.7008 256.739 53.0244C256.243 53.5303 255.719 53.9245 255.167 54.207C254.62 54.485 254.094 54.624 253.588 54.624C252.731 54.624 252.303 54.1751 252.303 53.2773C252.303 52.8672 252.371 52.4365 252.508 51.9854C252.649 51.5296 252.845 51.083 253.096 50.6455C253.789 49.4515 254.545 48.8545 255.365 48.8545C255.666 48.8545 255.926 48.9206 256.145 49.0527C256.363 49.1803 256.566 49.3945 256.753 49.6953L257.17 48.7861C256.901 48.6631 256.68 48.5811 256.507 48.54C256.334 48.499 256.131 48.4785 255.899 48.4785C254.973 48.4785 254.119 48.8408 253.335 49.5654C253.03 49.8571 252.747 50.1738 252.487 50.5156C252.232 50.8529 252.013 51.1969 251.831 51.5479C251.649 51.8988 251.505 52.2497 251.401 52.6006C251.3 52.9515 251.25 53.2751 251.25 53.5713C251.25 54.0863 251.398 54.4919 251.694 54.7881C251.995 55.0798 252.408 55.2256 252.932 55.2256C253.388 55.2256 253.855 55.1344 254.333 54.9521C254.816 54.7699 255.288 54.5124 255.748 54.1797C256.213 53.847 256.66 53.4482 257.088 52.9834C257.516 52.5186 257.908 51.9967 258.264 51.418L258.387 51.0352ZM266.26 51.0352C265.932 51.5137 265.59 51.9626 265.235 52.3818C264.879 52.8011 264.537 53.1657 264.209 53.4756C263.886 53.7809 263.583 54.0225 263.3 54.2002C263.022 54.3779 262.794 54.4668 262.616 54.4668C262.42 54.4668 262.322 54.3643 262.322 54.1592C262.322 54.0954 262.338 53.9769 262.37 53.8037C262.402 53.6305 262.443 53.4642 262.493 53.3047L262.842 52.1016L263.416 50.2559L263.949 48.7246L264.031 48.4785L262.774 48.6973C262.669 49.0892 262.532 49.4902 262.363 49.9004C262.195 50.306 261.976 50.7822 261.707 51.3291C261.52 51.6937 261.347 52.0218 261.188 52.3135C261.028 52.6006 260.869 52.8581 260.709 53.0859C260.554 53.3092 260.395 53.512 260.231 53.6943C260.067 53.8721 259.896 54.0407 259.718 54.2002C259.458 54.4326 259.164 54.5739 258.836 54.624H258.795C258.636 54.624 258.508 54.5693 258.412 54.46C258.321 54.346 258.276 54.1956 258.276 54.0088C258.276 53.9222 258.289 53.8174 258.317 53.6943C258.349 53.5667 258.405 53.373 258.488 53.1133L259.957 48.4785L257.592 48.6973L257.524 48.9365H257.66C258.016 48.9365 258.26 48.9753 258.392 49.0527C258.529 49.1257 258.597 49.2555 258.597 49.4424C258.597 49.5153 258.592 49.5973 258.583 49.6885C258.574 49.7751 258.556 49.8708 258.529 49.9756C258.529 49.9847 258.517 50.0348 258.494 50.126C258.472 50.2126 258.433 50.3493 258.378 50.5361L258.153 51.2744L257.968 51.876L257.804 52.3818C257.781 52.4092 257.756 52.473 257.729 52.5732C257.701 52.6689 257.665 52.7965 257.619 52.9561C257.515 53.3298 257.442 53.6055 257.401 53.7832C257.36 53.9609 257.339 54.1045 257.339 54.2139C257.339 54.5146 257.419 54.7471 257.578 54.9111C257.738 55.0752 257.952 55.1572 258.221 55.1572C259.433 55.1572 260.627 53.9564 261.803 51.5547C262.026 51.0898 262.236 50.6227 262.432 50.1533C262.628 49.6794 262.792 49.2236 262.924 48.7861H262.979L261.666 52.9561C261.561 53.2933 261.479 53.5553 261.42 53.7422C261.361 53.929 261.32 54.0452 261.297 54.0908C261.279 54.1364 261.27 54.1865 261.27 54.2412C261.27 54.2913 261.27 54.3438 261.27 54.3984C261.27 54.64 261.327 54.8268 261.441 54.959C261.555 55.0911 261.714 55.1572 261.919 55.1572C262.252 55.1572 262.657 54.9863 263.136 54.6445C263.619 54.3027 264.159 53.8014 264.756 53.1406C265.039 52.8398 265.292 52.5505 265.515 52.2725C265.738 51.9899 265.948 51.7051 266.144 51.418L266.26 51.0352ZM261.229 47.8428L261.748 47.6787C261.748 47.6787 261.741 47.6514 261.728 47.5967C261.719 47.5192 261.721 47.4486 261.735 47.3848C261.753 47.321 261.787 47.264 261.837 47.2139C261.892 47.1637 261.962 47.1136 262.049 47.0635C262.14 47.0088 262.254 46.9495 262.391 46.8857C262.97 46.6214 263.236 46.3525 263.191 46.0791C263.163 45.9105 263.049 45.7692 262.849 45.6553C262.653 45.5368 262.395 45.4753 262.076 45.4707C261.917 45.4707 261.771 45.4867 261.639 45.5186C261.511 45.5459 261.397 45.5892 261.297 45.6484L261.441 45.8398C261.659 45.6986 261.849 45.6279 262.008 45.6279C262.113 45.6279 262.204 45.6598 262.281 45.7236C262.363 45.7829 262.418 45.8854 262.446 46.0312C262.473 46.1908 262.443 46.332 262.357 46.4551C262.275 46.5781 262.131 46.7103 261.926 46.8516C261.83 46.9154 261.746 46.9769 261.673 47.0361C261.6 47.0908 261.539 47.141 261.488 47.1865C261.388 47.2868 261.318 47.3984 261.277 47.5215C261.236 47.6445 261.224 47.7653 261.242 47.8838C261.242 47.8883 261.238 47.8747 261.229 47.8428ZM274.181 51.0352C274.126 51.1126 274.081 51.1764 274.044 51.2266C274.008 51.2767 273.976 51.3223 273.948 51.3633C273.62 51.7917 273.265 52.2155 272.882 52.6348C272.499 53.054 272.135 53.4141 271.788 53.7148C271.492 53.9837 271.241 54.1774 271.036 54.2959C270.831 54.4098 270.64 54.4668 270.462 54.4668C270.257 54.4668 270.155 54.3643 270.155 54.1592C270.155 54.0954 270.17 53.986 270.202 53.8311C270.234 53.6761 270.278 53.4915 270.332 53.2773C270.392 53.0632 270.455 52.8307 270.524 52.5801C270.592 52.3249 270.669 52.0674 270.756 51.8076L271.228 50.2969C271.323 49.9961 271.428 49.6794 271.542 49.3467C271.661 49.0094 271.768 48.7201 271.864 48.4785L270.77 48.6289L270.182 50.4609L270.038 50.4473C270.088 50.2604 270.118 50.1169 270.127 50.0166C270.136 49.9118 270.141 49.7819 270.141 49.627C270.141 48.8613 269.836 48.4785 269.225 48.4785C268.528 48.4785 267.805 48.8796 267.058 49.6816C266.406 50.3789 265.9 51.0785 265.54 51.7803C265.18 52.4821 265 53.1224 265 53.7012C265 54.1387 265.11 54.4919 265.328 54.7607C265.547 55.0251 265.834 55.1572 266.19 55.1572C266.518 55.1572 266.853 55.0524 267.195 54.8428C267.541 54.6286 267.88 54.3369 268.213 53.9678C268.546 53.5941 268.856 53.1497 269.143 52.6348C269.434 52.1198 269.683 51.5592 269.888 50.9531L270.025 50.9805L269.286 53.3184C269.191 53.6009 269.125 53.8242 269.088 53.9883C269.052 54.1478 269.033 54.2754 269.033 54.3711C269.033 54.6126 269.095 54.804 269.218 54.9453C269.346 55.0866 269.517 55.1572 269.731 55.1572C269.972 55.1572 270.248 55.082 270.558 54.9316C270.868 54.7812 271.171 54.5762 271.467 54.3164C271.832 53.9883 272.226 53.5827 272.65 53.0996C273.073 52.612 273.486 52.1198 273.887 51.623L274.058 51.418L274.181 51.0352ZM269.703 50.2832C269.703 50.6113 269.651 50.9372 269.546 51.2607C269.446 51.5798 269.275 51.9489 269.033 52.3682C268.651 53.0199 268.254 53.5326 267.844 53.9062C267.434 54.2799 267.051 54.4668 266.696 54.4668C266.472 54.4668 266.294 54.3711 266.162 54.1797C266.03 53.9883 265.964 53.7194 265.964 53.373C265.964 53.3275 265.966 53.2773 265.971 53.2227C265.975 53.168 265.982 53.1156 265.991 53.0654C266.051 52.555 266.174 52.056 266.361 51.5684C266.547 51.0762 266.768 50.641 267.024 50.2627C267.279 49.8844 267.557 49.5814 267.858 49.3535C268.163 49.1211 268.461 49.0049 268.753 49.0049C269.04 49.0049 269.27 49.1211 269.444 49.3535C269.617 49.5814 269.703 49.8913 269.703 50.2832ZM285.791 51.0352C285.55 51.3724 285.299 51.7028 285.039 52.0264C284.78 52.3454 284.49 52.6826 284.171 53.0381C284.012 53.2158 283.854 53.3799 283.7 53.5303C283.545 53.6807 283.394 53.8197 283.248 53.9473C282.966 54.1842 282.656 54.3711 282.319 54.5078C281.986 54.64 281.669 54.7061 281.368 54.7061C281.232 54.7061 281.118 54.6947 281.027 54.6719C280.94 54.6491 280.831 54.599 280.699 54.5215C281.09 54.2617 281.457 53.945 281.799 53.5713C282.141 53.1976 282.439 52.8057 282.695 52.3955C282.95 51.9854 283.153 51.5706 283.303 51.1514C283.453 50.7321 283.529 50.3447 283.529 49.9893C283.529 49.5426 283.403 49.1803 283.153 48.9023C282.907 48.6198 282.592 48.4785 282.209 48.4785C281.845 48.4785 281.487 48.5947 281.136 48.8271C280.79 49.0596 280.482 49.3695 280.213 49.7568C279.949 50.1442 279.735 50.5863 279.571 51.083C279.407 51.5752 279.325 52.0833 279.325 52.6074C279.325 53.0632 279.388 53.4505 279.516 53.7695C279.644 54.084 279.842 54.3597 280.111 54.5967C279.978 54.6696 279.865 54.7174 279.769 54.7402C279.678 54.763 279.559 54.7744 279.413 54.7744C278.748 54.7744 278.415 54.4896 278.415 53.9199C278.415 53.8105 278.436 53.6579 278.477 53.4619C278.522 53.266 278.595 53.0176 278.696 52.7168L281.409 44.1104L279.072 44.2881L279.003 44.541H279.297C279.571 44.541 279.76 44.5843 279.865 44.6709C279.974 44.7529 280.029 44.8965 280.029 45.1016C280.029 45.1745 280.017 45.2565 279.994 45.3477C279.976 45.4342 279.958 45.5299 279.94 45.6348L279.803 46.209L279.495 47.2549L277.773 52.7168C277.691 52.9902 277.622 53.2454 277.568 53.4824C277.518 53.7194 277.492 53.9085 277.492 54.0498C277.492 54.3962 277.595 54.6673 277.8 54.8633C278.005 55.0592 278.285 55.1572 278.641 55.1572C279.229 55.1572 279.785 55.0205 280.309 54.7471C280.514 54.8519 280.678 54.9202 280.801 54.9521C280.929 54.984 281.081 55 281.259 55C281.528 55 281.817 54.943 282.127 54.8291C282.474 54.7106 282.793 54.542 283.084 54.3232C283.381 54.1045 283.715 53.7992 284.089 53.4072C284.226 53.2568 284.356 53.1087 284.479 52.9629C284.602 52.8171 284.725 52.6689 284.848 52.5186C284.976 52.3636 285.105 52.1973 285.238 52.0195C285.374 51.8418 285.522 51.6413 285.682 51.418L285.791 51.0352ZM282.503 50.4336C282.503 50.7708 282.446 51.1331 282.332 51.5205C282.223 51.9079 282.073 52.2839 281.881 52.6484C281.69 53.013 281.466 53.3525 281.211 53.667C280.961 53.9769 280.701 54.2253 280.432 54.4121C280.163 54.2253 279.956 53.9632 279.81 53.626C279.664 53.2842 279.591 52.8877 279.591 52.4365C279.591 52.0811 279.644 51.7028 279.748 51.3018C279.858 50.9007 280.001 50.5475 280.179 50.2422C280.393 49.8776 280.623 49.5928 280.869 49.3877C281.12 49.1826 281.366 49.0801 281.608 49.0801C281.89 49.0801 282.109 49.2008 282.264 49.4424C282.423 49.6839 282.503 50.0143 282.503 50.4336ZM293.746 51.0352C293.692 51.1126 293.646 51.1764 293.61 51.2266C293.573 51.2767 293.541 51.3223 293.514 51.3633C293.186 51.7917 292.83 52.2155 292.448 52.6348C292.065 53.054 291.7 53.4141 291.354 53.7148C291.058 53.9837 290.807 54.1774 290.602 54.2959C290.397 54.4098 290.205 54.4668 290.028 54.4668C289.823 54.4668 289.72 54.3643 289.72 54.1592C289.72 54.0954 289.736 53.986 289.768 53.8311C289.8 53.6761 289.843 53.4915 289.898 53.2773C289.957 53.0632 290.021 52.8307 290.089 52.5801C290.158 52.3249 290.235 52.0674 290.322 51.8076L290.793 50.2969C290.889 49.9961 290.994 49.6794 291.108 49.3467C291.226 49.0094 291.333 48.7201 291.429 48.4785L290.335 48.6289L289.747 50.4609L289.604 50.4473C289.654 50.2604 289.684 50.1169 289.693 50.0166C289.702 49.9118 289.706 49.7819 289.706 49.627C289.706 48.8613 289.401 48.4785 288.79 48.4785C288.093 48.4785 287.371 48.8796 286.623 49.6816C285.972 50.3789 285.466 51.0785 285.106 51.7803C284.746 52.4821 284.566 53.1224 284.566 53.7012C284.566 54.1387 284.675 54.4919 284.894 54.7607C285.113 55.0251 285.4 55.1572 285.755 55.1572C286.083 55.1572 286.418 55.0524 286.76 54.8428C287.106 54.6286 287.446 54.3369 287.779 53.9678C288.111 53.5941 288.421 53.1497 288.708 52.6348C289 52.1198 289.248 51.5592 289.453 50.9531L289.59 50.9805L288.852 53.3184C288.756 53.6009 288.69 53.8242 288.654 53.9883C288.617 54.1478 288.599 54.2754 288.599 54.3711C288.599 54.6126 288.661 54.804 288.784 54.9453C288.911 55.0866 289.082 55.1572 289.296 55.1572C289.538 55.1572 289.814 55.082 290.123 54.9316C290.433 54.7812 290.736 54.5762 291.033 54.3164C291.397 53.9883 291.791 53.5827 292.215 53.0996C292.639 52.612 293.051 52.1198 293.452 51.623L293.623 51.418L293.746 51.0352ZM289.269 50.2832C289.269 50.6113 289.216 50.9372 289.112 51.2607C289.011 51.5798 288.841 51.9489 288.599 52.3682C288.216 53.0199 287.82 53.5326 287.41 53.9062C286.999 54.2799 286.617 54.4668 286.261 54.4668C286.038 54.4668 285.86 54.3711 285.728 54.1797C285.596 53.9883 285.53 53.7194 285.53 53.373C285.53 53.3275 285.532 53.2773 285.536 53.2227C285.541 53.168 285.548 53.1156 285.557 53.0654C285.616 52.555 285.739 52.056 285.926 51.5684C286.113 51.0762 286.334 50.641 286.589 50.2627C286.844 49.8844 287.122 49.5814 287.423 49.3535C287.729 49.1211 288.027 49.0049 288.319 49.0049C288.606 49.0049 288.836 49.1211 289.009 49.3535C289.182 49.5814 289.269 49.8913 289.269 50.2832ZM288.025 56.1416C288.025 55.9958 287.975 55.8727 287.874 55.7725C287.779 55.6768 287.656 55.6289 287.505 55.6289C287.355 55.6289 287.225 55.679 287.116 55.7793C287.011 55.8841 286.958 56.0094 286.958 56.1553C286.958 56.3148 287.006 56.4424 287.102 56.5381C287.202 56.6383 287.332 56.6885 287.492 56.6885C287.642 56.6885 287.767 56.6338 287.868 56.5244C287.972 56.4196 288.025 56.292 288.025 56.1416ZM301.838 51.0352C301.706 51.2129 301.592 51.3678 301.496 51.5C301.405 51.6322 301.305 51.7643 301.196 51.8965C301.091 52.0241 300.972 52.1631 300.84 52.3135C300.713 52.4639 300.546 52.6462 300.341 52.8604C299.835 53.4209 299.409 53.8288 299.063 54.084C298.721 54.3392 298.429 54.4668 298.188 54.4668C297.983 54.4668 297.88 54.3551 297.88 54.1318C297.88 54.0498 297.908 53.8994 297.962 53.6807C298.017 53.4574 298.12 53.0951 298.27 52.5938L298.926 50.3652C299.058 49.9186 299.124 49.6019 299.124 49.415C299.124 49.1234 299.049 48.8955 298.899 48.7314C298.748 48.5628 298.543 48.4785 298.284 48.4785C297.901 48.4785 297.507 48.613 297.101 48.8818C296.695 49.1507 296.297 49.5495 295.905 50.0781C295.513 50.6068 295.135 51.2585 294.77 52.0332C294.405 52.8079 294.064 53.6989 293.745 54.7061L293.676 54.9316H293.498L295.495 48.4785L293.328 48.6699L293.17 48.9229H293.512C293.959 48.9229 294.182 49.0778 294.182 49.3877C294.182 49.5244 294.132 49.791 294.032 50.1875C293.936 50.5794 293.776 51.124 293.553 51.8213L292.473 55.2256L293.833 55L293.902 54.7881L294.237 53.8379C294.282 53.7057 294.346 53.5462 294.428 53.3594C294.515 53.1725 294.62 52.9492 294.743 52.6895C294.966 52.2155 295.135 51.8646 295.248 51.6367C295.463 51.2357 295.679 50.8757 295.898 50.5566C296.117 50.2331 296.333 49.9574 296.547 49.7295C296.761 49.5016 296.964 49.3239 297.156 49.1963C297.347 49.0687 297.523 49.0049 297.682 49.0049C297.842 49.0049 297.967 49.0596 298.058 49.1689C298.154 49.2783 298.202 49.4196 298.202 49.5928C298.202 49.6976 298.183 49.8229 298.147 49.9688C298.115 50.11 298.049 50.3356 297.949 50.6455L297.026 53.585C296.957 53.7992 296.907 53.9769 296.875 54.1182C296.843 54.2594 296.828 54.3757 296.828 54.4668C296.828 54.6719 296.885 54.8382 296.998 54.9658C297.117 55.0934 297.274 55.1572 297.47 55.1572C297.712 55.1572 297.971 55.0866 298.249 54.9453C298.532 54.804 298.824 54.6035 299.124 54.3438C299.32 54.166 299.519 53.9792 299.719 53.7832C299.92 53.5872 300.127 53.373 300.341 53.1406C300.519 52.9447 300.665 52.7783 300.779 52.6416C300.897 52.5049 301.004 52.375 301.1 52.252C301.2 52.1243 301.296 51.999 301.387 51.876C301.483 51.7484 301.592 51.5957 301.715 51.418L301.838 51.0352Z" fill="#03559D"/>
<path d="M74.2136 23.9711H75.4042V30.0792C75.4042 30.7572 75.2533 31.3215 74.9515 31.7722C74.6497 32.2228 74.2487 32.5618 73.7485 32.7892C73.2524 33.0124 72.7129 33.124 72.13 33.124C71.5181 33.124 70.9642 33.0124 70.4681 32.7892C69.9761 32.5618 69.5854 32.2228 69.296 31.7722C69.0108 31.3215 68.8682 30.7572 68.8682 30.0792V23.9711H70.0526V30.0792C70.0526 30.5505 70.1394 30.9391 70.313 31.2451C70.4867 31.551 70.7285 31.7784 71.0386 31.9272C71.3528 32.076 71.7166 32.1504 72.13 32.1504C72.5475 32.1504 72.9113 32.076 73.2214 31.9272C73.5356 31.7784 73.7795 31.551 73.9531 31.2451C74.1268 30.9391 74.2136 30.5505 74.2136 30.0792V23.9711ZM84.8635 23.9711V33H83.6604L79.115 26.0361V33H77.9182V23.9711H79.115L83.679 30.9536V23.9711H84.8635ZM88.9029 23.9711V33H87.7061V23.9711H88.9029ZM94.6291 31.6295L97.2894 23.9711H98.5854L95.243 33H94.319L94.6291 31.6295ZM92.1424 23.9711L94.7779 31.6295L95.1066 33H94.1826L90.8464 23.9711H92.1424ZM106.172 32.0264V33H101.391V32.0264H106.172ZM101.633 23.9711V33H100.436V23.9711H101.633ZM105.539 27.853V28.8266H101.391V27.853H105.539ZM106.11 23.9711V24.9509H101.391V23.9711H106.11ZM108.289 23.9711H111.278C111.956 23.9711 112.529 24.0744 112.996 24.2812C113.467 24.4879 113.825 24.7938 114.069 25.1989C114.317 25.5999 114.441 26.094 114.441 26.681C114.441 27.0944 114.356 27.4727 114.186 27.8158C114.021 28.1548 113.781 28.4442 113.467 28.684C113.157 28.9196 112.785 29.0953 112.351 29.2111L112.016 29.3413H109.207L109.194 28.3677H111.315C111.745 28.3677 112.103 28.2933 112.388 28.1445C112.673 27.9915 112.888 27.7869 113.033 27.5306C113.178 27.2743 113.25 26.9911 113.25 26.681C113.25 26.3337 113.182 26.0299 113.045 25.7694C112.909 25.509 112.694 25.3085 112.4 25.1679C112.111 25.0232 111.737 24.9509 111.278 24.9509H109.486V33H108.289V23.9711ZM113.566 33L111.371 28.9072L112.617 28.901L114.844 32.9256V33H113.566ZM121.562 30.718C121.562 30.5071 121.529 30.3211 121.463 30.1599C121.401 29.9945 121.289 29.8457 121.128 29.7134C120.971 29.5811 120.752 29.455 120.471 29.3351C120.194 29.2152 119.842 29.0933 119.416 28.9692C118.97 28.8369 118.567 28.6902 118.207 28.529C117.847 28.3636 117.54 28.1755 117.283 27.9646C117.027 27.7538 116.831 27.512 116.694 27.2391C116.558 26.9663 116.489 26.6541 116.489 26.3027C116.489 25.9513 116.562 25.6268 116.706 25.3292C116.851 25.0315 117.058 24.7731 117.327 24.554C117.599 24.3308 117.924 24.1571 118.3 24.0331C118.676 23.9091 119.096 23.8471 119.559 23.8471C120.237 23.8471 120.812 23.9773 121.283 24.2377C121.758 24.4941 122.12 24.831 122.368 25.2485C122.616 25.6619 122.74 26.1043 122.74 26.5756H121.55C121.55 26.2366 121.477 25.9369 121.333 25.6764C121.188 25.4118 120.969 25.2051 120.675 25.0563C120.382 24.9033 120.01 24.8269 119.559 24.8269C119.133 24.8269 118.782 24.8909 118.505 25.0191C118.228 25.1472 118.021 25.3209 117.885 25.54C117.752 25.7591 117.686 26.0092 117.686 26.2903C117.686 26.4805 117.726 26.6541 117.804 26.8112C117.887 26.9642 118.013 27.1068 118.182 27.2391C118.356 27.3714 118.575 27.4934 118.84 27.605C119.108 27.7166 119.429 27.8241 119.801 27.9274C120.313 28.0721 120.756 28.2334 121.128 28.4111C121.5 28.5889 121.806 28.7894 122.046 29.0126C122.29 29.2318 122.469 29.4819 122.585 29.763C122.705 30.04 122.765 30.3542 122.765 30.7056C122.765 31.0735 122.691 31.4063 122.542 31.704C122.393 32.0016 122.18 32.2559 121.903 32.4667C121.626 32.6775 121.293 32.8408 120.905 32.9566C120.52 33.0682 120.09 33.124 119.615 33.124C119.197 33.124 118.786 33.0661 118.381 32.9504C117.98 32.8346 117.614 32.661 117.283 32.4295C116.957 32.198 116.694 31.9127 116.496 31.5737C116.301 31.2306 116.204 30.8337 116.204 30.3831H117.395C117.395 30.6932 117.455 30.9598 117.575 31.1831C117.695 31.4022 117.858 31.5841 118.065 31.7288C118.275 31.8735 118.513 31.9809 118.778 32.0512C119.046 32.1174 119.325 32.1504 119.615 32.1504C120.032 32.1504 120.386 32.0926 120.675 31.9768C120.965 31.8611 121.184 31.6957 121.333 31.4807C121.486 31.2657 121.562 31.0115 121.562 30.718ZM126.209 23.9711V33H125.012V23.9711H126.209ZM132.171 23.9711V33H130.993V23.9711H132.171ZM135.073 23.9711V24.9509H128.097V23.9711H135.073ZM137.562 23.9711L139.906 28.5042L142.257 23.9711H143.615L140.502 29.6266V33H139.305V29.6266L136.192 23.9711H137.562ZM149.573 23.9711H150.732L153.69 31.3319L156.642 23.9711H157.808L154.137 33H153.231L149.573 23.9711ZM149.194 23.9711H150.218L150.385 29.4777V33H149.194V23.9711ZM157.157 23.9711H158.18V33H156.989V29.4777L157.157 23.9711ZM166.653 32.0264V33H161.872V32.0264H166.653ZM162.114 23.9711V33H160.917V23.9711H162.114ZM166.021 27.853V28.8266H161.872V27.853H166.021ZM166.591 23.9711V24.9509H161.872V23.9711H166.591ZM171.214 33H169.328L169.341 32.0264H171.214C171.858 32.0264 172.396 31.8921 172.826 31.6233C173.256 31.3505 173.578 30.9701 173.793 30.4823C174.012 29.9904 174.122 29.4157 174.122 28.7584V28.2065C174.122 27.6897 174.06 27.2308 173.936 26.8298C173.812 26.4247 173.63 26.0836 173.39 25.8066C173.15 25.5255 172.857 25.3126 172.51 25.1679C172.166 25.0232 171.772 24.9509 171.325 24.9509H169.291V23.9711H171.325C171.916 23.9711 172.456 24.0703 172.944 24.2688C173.431 24.4631 173.851 24.7462 174.203 25.1183C174.558 25.4862 174.831 25.9327 175.021 26.4578C175.211 26.9787 175.306 27.5657 175.306 28.2189V28.7584C175.306 29.4116 175.211 30.0007 175.021 30.5257C174.831 31.0466 174.556 31.491 174.196 31.859C173.841 32.2269 173.411 32.5101 172.906 32.7085C172.406 32.9028 171.842 33 171.214 33ZM169.967 23.9711V33H168.77V23.9711H169.967ZM179.023 23.9711V33H177.826V23.9711H179.023ZM187.286 30.1289H188.476C188.414 30.6994 188.251 31.2099 187.986 31.6605C187.722 32.1112 187.348 32.4688 186.864 32.7333C186.38 32.9938 185.777 33.124 185.053 33.124C184.524 33.124 184.043 33.0248 183.608 32.8264C183.178 32.6279 182.808 32.3468 182.498 31.983C182.188 31.6151 181.949 31.1748 181.779 30.6622C181.614 30.1454 181.531 29.5708 181.531 28.9382V28.0391C181.531 27.4065 181.614 26.834 181.779 26.3213C181.949 25.8046 182.19 25.3622 182.505 24.9943C182.823 24.6264 183.205 24.3432 183.652 24.1447C184.098 23.9463 184.601 23.8471 185.159 23.8471C185.841 23.8471 186.418 23.9752 186.889 24.2315C187.36 24.4879 187.726 24.8434 187.986 25.2981C188.251 25.7488 188.414 26.2717 188.476 26.867H187.286C187.228 26.4454 187.12 26.0836 186.963 25.7818C186.806 25.4759 186.583 25.2403 186.294 25.0749C186.004 24.9095 185.626 24.8269 185.159 24.8269C184.758 24.8269 184.404 24.9033 184.098 25.0563C183.797 25.2093 183.542 25.4263 183.336 25.7074C183.133 25.9885 182.98 26.3255 182.877 26.7182C182.773 27.111 182.722 27.5471 182.722 28.0267V28.9382C182.722 29.3806 182.767 29.7961 182.858 30.1847C182.953 30.5733 183.096 30.9143 183.286 31.2079C183.476 31.5014 183.718 31.7329 184.012 31.9024C184.305 32.0678 184.652 32.1504 185.053 32.1504C185.562 32.1504 185.967 32.0698 186.269 31.9086C186.571 31.7474 186.798 31.5159 186.951 31.2141C187.108 30.9123 187.22 30.5505 187.286 30.1289ZM194.085 24.771L191.096 33H189.874L193.316 23.9711H194.103L194.085 24.771ZM196.59 33L193.595 24.771L193.576 23.9711H194.364L197.818 33H196.59ZM196.435 29.6576V30.6374H191.362V29.6576H196.435ZM205.138 32.0264V33H200.623V32.0264H205.138ZM200.859 23.9711V33H199.662V23.9711H200.859ZM216.379 30.1289H217.57C217.508 30.6994 217.344 31.2099 217.08 31.6605C216.815 32.1112 216.441 32.4688 215.957 32.7333C215.474 32.9938 214.87 33.124 214.147 33.124C213.618 33.124 213.136 33.0248 212.702 32.8264C212.272 32.6279 211.902 32.3468 211.592 31.983C211.282 31.6151 211.042 31.1748 210.873 30.6622C210.707 30.1454 210.624 29.5708 210.624 28.9382V28.0391C210.624 27.4065 210.707 26.834 210.873 26.3213C211.042 25.8046 211.284 25.3622 211.598 24.9943C211.916 24.6264 212.299 24.3432 212.745 24.1447C213.192 23.9463 213.694 23.8471 214.252 23.8471C214.934 23.8471 215.511 23.9752 215.982 24.2315C216.454 24.4879 216.819 24.8434 217.08 25.2981C217.344 25.7488 217.508 26.2717 217.57 26.867H216.379C216.321 26.4454 216.214 26.0836 216.057 25.7818C215.9 25.4759 215.676 25.2403 215.387 25.0749C215.098 24.9095 214.719 24.8269 214.252 24.8269C213.851 24.8269 213.498 24.9033 213.192 25.0563C212.89 25.2093 212.636 25.4263 212.429 25.7074C212.226 25.9885 212.073 26.3255 211.97 26.7182C211.867 27.111 211.815 27.5471 211.815 28.0267V28.9382C211.815 29.3806 211.861 29.7961 211.952 30.1847C212.047 30.5733 212.189 30.9143 212.379 31.2079C212.57 31.5014 212.811 31.7329 213.105 31.9024C213.398 32.0678 213.746 32.1504 214.147 32.1504C214.655 32.1504 215.06 32.0698 215.362 31.9086C215.664 31.7474 215.891 31.5159 216.044 31.2141C216.201 30.9123 216.313 30.5505 216.379 30.1289ZM225.572 32.0264V33H220.791V32.0264H225.572ZM221.033 23.9711V33H219.836V23.9711H221.033ZM224.939 27.853V28.8266H220.791V27.853H224.939ZM225.51 23.9711V24.9509H220.791V23.9711H225.51ZM234.634 23.9711V33H233.431L228.886 26.0361V33H227.689V23.9711H228.886L233.45 30.9536V23.9711H234.634ZM240.54 23.9711V33H239.362V23.9711H240.54ZM243.442 23.9711V24.9509H236.466V23.9711H243.442ZM251.153 32.0264V33H246.372V32.0264H251.153ZM246.614 23.9711V33H245.417V23.9711H246.614ZM250.52 27.853V28.8266H246.372V27.853H250.52ZM251.091 23.9711V24.9509H246.372V23.9711H251.091ZM253.27 23.9711H256.259C256.937 23.9711 257.509 24.0744 257.977 24.2812C258.448 24.4879 258.806 24.7938 259.049 25.1989C259.297 25.5999 259.421 26.094 259.421 26.681C259.421 27.0944 259.337 27.4727 259.167 27.8158C259.002 28.1548 258.762 28.4442 258.448 28.684C258.138 28.9196 257.766 29.0953 257.332 29.2111L256.997 29.3413H254.188L254.175 28.3677H256.296C256.726 28.3677 257.084 28.2933 257.369 28.1445C257.654 27.9915 257.869 27.7869 258.014 27.5306C258.159 27.2743 258.231 26.9911 258.231 26.681C258.231 26.3337 258.163 26.0299 258.026 25.7694C257.89 25.509 257.675 25.3085 257.381 25.1679C257.092 25.0232 256.718 24.9509 256.259 24.9509H254.467V33H253.27V23.9711ZM258.547 33L256.352 28.9072L257.598 28.901L259.825 32.9256V33H258.547ZM271.413 27.853V28.8266H266.527V27.853H271.413ZM266.713 23.9711V33H265.516V23.9711H266.713ZM272.455 23.9711V33H271.264V23.9711H272.455ZM280.668 30.1289H281.859C281.797 30.6994 281.633 31.2099 281.369 31.6605C281.104 32.1112 280.73 32.4688 280.246 32.7333C279.763 32.9938 279.159 33.124 278.436 33.124C277.906 33.124 277.425 33.0248 276.991 32.8264C276.561 32.6279 276.191 32.3468 275.881 31.983C275.571 31.6151 275.331 31.1748 275.161 30.6622C274.996 30.1454 274.913 29.5708 274.913 28.9382V28.0391C274.913 27.4065 274.996 26.834 275.161 26.3213C275.331 25.8046 275.573 25.3622 275.887 24.9943C276.205 24.6264 276.588 24.3432 277.034 24.1447C277.481 23.9463 277.983 23.8471 278.541 23.8471C279.223 23.8471 279.8 23.9752 280.271 24.2315C280.742 24.4879 281.108 24.8434 281.369 25.2981C281.633 25.7488 281.797 26.2717 281.859 26.867H280.668C280.61 26.4454 280.503 26.0836 280.345 25.7818C280.188 25.4759 279.965 25.2403 279.676 25.0749C279.386 24.9095 279.008 24.8269 278.541 24.8269C278.14 24.8269 277.786 24.9033 277.481 25.0563C277.179 25.2093 276.925 25.4263 276.718 25.7074C276.515 25.9885 276.362 26.3255 276.259 26.7182C276.156 27.111 276.104 27.5471 276.104 28.0267V28.9382C276.104 29.3806 276.149 29.7961 276.24 30.1847C276.335 30.5733 276.478 30.9143 276.668 31.2079C276.858 31.5014 277.1 31.7329 277.394 31.9024C277.687 32.0678 278.035 32.1504 278.436 32.1504C278.944 32.1504 279.349 32.0698 279.651 31.9086C279.953 31.7474 280.18 31.5159 280.333 31.2141C280.49 30.9123 280.602 30.5505 280.668 30.1289ZM284.503 23.9711H285.662L288.62 31.3319L291.572 23.9711H292.738L289.067 33H288.161L284.503 23.9711ZM284.124 23.9711H285.148L285.315 29.4777V33H284.124V23.9711ZM292.087 23.9711H293.11V33H291.919V29.4777L292.087 23.9711ZM301.298 30.1289H302.489C302.427 30.6994 302.263 31.2099 301.999 31.6605C301.734 32.1112 301.36 32.4688 300.876 32.7333C300.393 32.9938 299.789 33.124 299.066 33.124C298.536 33.124 298.055 33.0248 297.621 32.8264C297.191 32.6279 296.821 32.3468 296.511 31.983C296.201 31.6151 295.961 31.1748 295.791 30.6622C295.626 30.1454 295.543 29.5708 295.543 28.9382V28.0391C295.543 27.4065 295.626 26.834 295.791 26.3213C295.961 25.8046 296.203 25.3622 296.517 24.9943C296.835 24.6264 297.218 24.3432 297.664 24.1447C298.111 23.9463 298.613 23.8471 299.171 23.8471C299.853 23.8471 300.43 23.9752 300.901 24.2315C301.372 24.4879 301.738 24.8434 301.999 25.2981C302.263 25.7488 302.427 26.2717 302.489 26.867H301.298C301.24 26.4454 301.133 26.0836 300.976 25.7818C300.818 25.4759 300.595 25.2403 300.306 25.0749C300.016 24.9095 299.638 24.8269 299.171 24.8269C298.77 24.8269 298.417 24.9033 298.111 25.0563C297.809 25.2093 297.555 25.4263 297.348 25.7074C297.145 25.9885 296.992 26.3255 296.889 26.7182C296.786 27.111 296.734 27.5471 296.734 28.0267V28.9382C296.734 29.3806 296.779 29.7961 296.87 30.1847C296.965 30.5733 297.108 30.9143 297.298 31.2079C297.488 31.5014 297.73 31.7329 298.024 31.9024C298.317 32.0678 298.665 32.1504 299.066 32.1504C299.574 32.1504 299.979 32.0698 300.281 31.9086C300.583 31.7474 300.81 31.5159 300.963 31.2141C301.12 30.9123 301.232 30.5505 301.298 30.1289Z" fill="#6ABFE4"/>
<path d="M72.7852 8.68662H70.2285L70.2148 7.27842H72.3613C72.7396 7.27842 73.0495 7.23057 73.291 7.13486C73.5326 7.0346 73.7126 6.89105 73.8311 6.7042C73.9541 6.51279 74.0156 6.28037 74.0156 6.00694C74.0156 5.69704 73.9564 5.44639 73.8379 5.25498C73.724 5.06358 73.5439 4.92458 73.2979 4.83799C73.0563 4.7514 72.7441 4.70811 72.3613 4.70811H70.9395V13.0548H68.8887V3.10166H72.3613C72.9401 3.10166 73.4574 3.15635 73.9131 3.26572C74.3734 3.3751 74.763 3.54144 75.082 3.76475C75.401 3.98805 75.6449 4.27061 75.8135 4.6124C75.9821 4.94964 76.0664 5.35069 76.0664 5.81553C76.0664 6.22569 75.973 6.60394 75.7861 6.95029C75.6038 7.29665 75.3145 7.5792 74.918 7.79795C74.526 8.0167 74.0133 8.13747 73.3799 8.16026L72.7852 8.68662ZM72.6963 13.0548H69.668L70.4678 11.4552H72.6963C73.0563 11.4552 73.3503 11.3982 73.5781 11.2843C73.806 11.1658 73.9746 11.0063 74.084 10.8058C74.1934 10.6052 74.248 10.3751 74.248 10.1153C74.248 9.82367 74.1979 9.57074 74.0977 9.35654C74.002 9.14235 73.847 8.97829 73.6328 8.86436C73.4186 8.74587 73.1361 8.68662 72.7852 8.68662H70.8096L70.8232 7.27842H73.2842L73.7559 7.83213C74.362 7.82302 74.8496 7.93011 75.2188 8.15342C75.5924 8.37217 75.8636 8.657 76.0322 9.00791C76.2054 9.35882 76.292 9.7348 76.292 10.1358C76.292 10.7739 76.153 11.3116 75.875 11.7491C75.597 12.1821 75.1891 12.5079 74.6514 12.7267C74.1182 12.9454 73.4665 13.0548 72.6963 13.0548ZM84.3688 11.4552V13.0548H79.0709V11.4552H84.3688ZM79.7409 3.10166V13.0548H77.6901V3.10166H79.7409ZM83.6784 7.15537V8.71397H79.0709V7.15537H83.6784ZM84.362 3.10166V4.70811H79.0709V3.10166H84.362ZM81.7164 0.408302L83.7809 2.30869V2.39072H82.2155L81.1422 1.39268L80.0827 2.39072H78.5446V2.28819L80.5748 0.408302H81.7164ZM80.0553 14.5929C80.0553 14.3285 80.1556 14.1075 80.3561 13.9298C80.5566 13.7566 80.8255 13.67 81.1627 13.67C81.4954 13.67 81.762 13.7566 81.9625 13.9298C82.1676 14.1075 82.2702 14.3285 82.2702 14.5929C82.2702 14.8526 82.1676 15.0714 81.9625 15.2491C81.762 15.4269 81.4954 15.5157 81.1627 15.5157C80.8255 15.5157 80.5566 15.4269 80.3561 15.2491C80.1556 15.0714 80.0553 14.8526 80.0553 14.5929ZM93.5257 3.10166V13.0548H91.4749L87.4759 6.38291V13.0548H85.4251V3.10166H87.4759L91.4817 9.78037V3.10166H93.5257ZM101.808 7.15537V8.75498H96.6122V7.15537H101.808ZM97.2206 3.10166V13.0548H95.1698V3.10166H97.2206ZM103.27 3.10166V13.0548H101.226V3.10166H103.27ZM111.85 10.9767L114.195 3.10166H116.478L113.012 13.0548H111.508L111.85 10.9767ZM109.69 3.10166L112.028 10.9767L112.383 13.0548H110.865L107.42 3.10166H109.69ZM119.448 3.10166V13.0548H117.404V3.10166H119.448ZM127.908 11.4552V13.0548H122.61V11.4552H127.908ZM123.28 3.10166V13.0548H121.229V3.10166H123.28ZM127.217 7.15537V8.71397H122.61V7.15537H127.217ZM127.901 3.10166V4.70811H122.61V3.10166H127.901ZM125.255 0.408302L127.32 2.30869V2.39072H125.754L124.681 1.39268L123.622 2.39072H122.083V2.28819L124.114 0.408302H125.255ZM123.594 14.5929C123.594 14.3285 123.694 14.1075 123.895 13.9298C124.096 13.7566 124.364 13.67 124.702 13.67C125.034 13.67 125.301 13.7566 125.501 13.9298C125.707 14.1075 125.809 14.3285 125.809 14.5929C125.809 14.8526 125.707 15.0714 125.501 15.2491C125.301 15.4269 125.034 15.5157 124.702 15.5157C124.364 15.5157 124.096 15.4269 123.895 15.2491C123.694 15.0714 123.594 14.8526 123.594 14.5929ZM137.065 3.10166V13.0548H135.014L131.015 6.38291V13.0548H128.964V3.10166H131.015L135.021 9.78037V3.10166H137.065ZM145.316 13.0548H143.149L143.162 11.4552H145.316C145.854 11.4552 146.307 11.3344 146.676 11.0929C147.045 10.8468 147.323 10.489 147.51 10.0196C147.702 9.55023 147.797 8.98285 147.797 8.31748V7.83213C147.797 7.32171 147.743 6.87282 147.633 6.48545C147.528 6.09808 147.371 5.77223 147.162 5.50791C146.952 5.24359 146.694 5.04535 146.389 4.91319C146.084 4.77647 145.733 4.70811 145.336 4.70811H143.108V3.10166H145.336C146.002 3.10166 146.61 3.21559 147.162 3.44346C147.718 3.66677 148.198 3.98805 148.604 4.40733C149.01 4.8266 149.322 5.3279 149.54 5.91123C149.764 6.49001 149.875 7.13486 149.875 7.8458V8.31748C149.875 9.02386 149.764 9.66872 149.54 10.2521C149.322 10.8354 149.01 11.3367 148.604 11.756C148.203 12.1707 147.722 12.492 147.162 12.7198C146.606 12.9431 145.99 13.0548 145.316 13.0548ZM144.311 3.10166V13.0548H142.26V3.10166H144.311ZM146.034 7.42881V8.64561H141.242V7.42881H146.034ZM155.122 4.80381L152.415 13.0548H150.234L153.933 3.10166H155.32L155.122 4.80381ZM157.371 13.0548L154.657 4.80381L154.439 3.10166H155.84L159.559 13.0548H157.371ZM157.248 9.34971V10.9562H151.991V9.34971H157.248ZM153.837 14.6202C153.837 14.3559 153.937 14.1349 154.138 13.9571C154.338 13.784 154.607 13.6974 154.944 13.6974C155.277 13.6974 155.544 13.784 155.744 13.9571C155.949 14.1349 156.052 14.3559 156.052 14.6202C156.052 14.88 155.949 15.0987 155.744 15.2765C155.544 15.4542 155.277 15.5431 154.944 15.5431C154.607 15.5431 154.338 15.4542 154.138 15.2765C153.937 15.0987 153.837 14.88 153.837 14.6202ZM162.522 3.10166V13.0548H160.478V3.10166H162.522ZM174.287 7.15537V8.75498H169.092V7.15537H174.287ZM169.7 3.10166V13.0548H167.649V3.10166H169.7ZM175.75 3.10166V13.0548H173.706V3.10166H175.75ZM185.57 7.8458V8.31748C185.57 9.07399 185.467 9.75303 185.262 10.3546C185.057 10.9562 184.768 11.4688 184.394 11.8927C184.02 12.3119 183.574 12.6332 183.054 12.8565C182.539 13.0799 181.967 13.1915 181.338 13.1915C180.714 13.1915 180.142 13.0799 179.623 12.8565C179.108 12.6332 178.661 12.3119 178.283 11.8927C177.905 11.4688 177.611 10.9562 177.401 10.3546C177.196 9.75303 177.093 9.07399 177.093 8.31748V7.8458C177.093 7.08473 177.196 6.4057 177.401 5.80869C177.606 5.20713 177.895 4.69444 178.269 4.27061C178.647 3.84678 179.094 3.52321 179.609 3.2999C180.129 3.0766 180.7 2.96494 181.325 2.96494C181.954 2.96494 182.526 3.0766 183.041 3.2999C183.56 3.52321 184.007 3.84678 184.38 4.27061C184.759 4.69444 185.05 5.20713 185.255 5.80869C185.465 6.4057 185.57 7.08473 185.57 7.8458ZM183.499 8.31748V7.83213C183.499 7.30348 183.451 6.83864 183.355 6.4376C183.259 6.03656 183.118 5.69932 182.931 5.42588C182.744 5.15244 182.517 4.94736 182.248 4.81065C181.979 4.66937 181.671 4.59873 181.325 4.59873C180.978 4.59873 180.671 4.66937 180.402 4.81065C180.138 4.94736 179.912 5.15244 179.725 5.42588C179.543 5.69932 179.404 6.03656 179.308 6.4376C179.213 6.83864 179.165 7.30348 179.165 7.83213V8.31748C179.165 8.84157 179.213 9.30641 179.308 9.71201C179.404 10.1131 179.545 10.4526 179.732 10.7306C179.919 11.004 180.147 11.2114 180.416 11.3526C180.685 11.4939 180.992 11.5646 181.338 11.5646C181.685 11.5646 181.992 11.4939 182.261 11.3526C182.53 11.2114 182.756 11.004 182.938 10.7306C183.12 10.4526 183.259 10.1131 183.355 9.71201C183.451 9.30641 183.499 8.84157 183.499 8.31748ZM180.252 14.6612C180.252 14.3969 180.352 14.1759 180.552 13.9981C180.753 13.825 181.022 13.7384 181.359 13.7384C181.692 13.7384 181.958 13.825 182.159 13.9981C182.364 14.1759 182.466 14.3969 182.466 14.6612C182.466 14.921 182.364 15.1397 182.159 15.3175C181.958 15.4952 181.692 15.5841 181.359 15.5841C181.022 15.5841 180.753 15.4952 180.552 15.3175C180.352 15.1397 180.252 14.921 180.252 14.6612ZM192.676 9.75303H194.72C194.679 10.423 194.494 11.0177 194.166 11.5372C193.843 12.0567 193.389 12.4623 192.806 12.754C192.227 13.0457 191.53 13.1915 190.714 13.1915C190.076 13.1915 189.504 13.0821 188.998 12.8634C188.492 12.6401 188.059 12.3211 187.699 11.9063C187.344 11.4916 187.073 10.9903 186.886 10.4024C186.699 9.81455 186.606 9.15602 186.606 8.42686V7.73643C186.606 7.00726 186.701 6.34873 186.893 5.76084C187.089 5.16839 187.367 4.66481 187.727 4.2501C188.091 3.83539 188.527 3.51638 189.032 3.29307C189.538 3.06976 190.103 2.95811 190.728 2.95811C191.557 2.95811 192.257 3.1085 192.826 3.40928C193.401 3.71006 193.845 4.12477 194.159 4.65342C194.478 5.18207 194.67 5.78363 194.734 6.45811H192.683C192.66 6.05707 192.58 5.71755 192.444 5.43955C192.307 5.157 192.1 4.94509 191.822 4.80381C191.548 4.65798 191.184 4.58506 190.728 4.58506C190.386 4.58506 190.087 4.64886 189.832 4.77647C189.577 4.90407 189.363 5.09776 189.19 5.35752C189.017 5.61729 188.887 5.94541 188.8 6.3419C188.718 6.73382 188.677 7.19411 188.677 7.72276V8.42686C188.677 8.94183 188.716 9.39528 188.793 9.78721C188.871 10.1746 188.989 10.5027 189.149 10.7716C189.313 11.0359 189.522 11.2364 189.778 11.3731C190.037 11.5053 190.35 11.5714 190.714 11.5714C191.142 11.5714 191.496 11.503 191.774 11.3663C192.052 11.2296 192.264 11.0268 192.409 10.7579C192.56 10.489 192.649 10.1541 192.676 9.75303ZM200.64 3.10166L202.718 7.64072L204.796 3.10166H207.032L203.757 9.43174V13.0548H201.679V9.43174L198.398 3.10166H200.64ZM214.203 13.0548H212.036L212.05 11.4552H214.203C214.741 11.4552 215.194 11.3344 215.563 11.0929C215.932 10.8468 216.21 10.489 216.397 10.0196C216.589 9.55023 216.684 8.98285 216.684 8.31748V7.83213C216.684 7.32171 216.63 6.87282 216.52 6.48545C216.415 6.09808 216.258 5.77223 216.049 5.50791C215.839 5.24359 215.582 5.04535 215.276 4.91319C214.971 4.77647 214.62 4.70811 214.223 4.70811H211.995V3.10166H214.223C214.889 3.10166 215.497 3.21559 216.049 3.44346C216.605 3.66677 217.085 3.98805 217.491 4.40733C217.897 4.8266 218.209 5.3279 218.428 5.91123C218.651 6.49001 218.762 7.13486 218.762 7.8458V8.31748C218.762 9.02386 218.651 9.66872 218.428 10.2521C218.209 10.8354 217.897 11.3367 217.491 11.756C217.09 12.1707 216.609 12.492 216.049 12.7198C215.493 12.9431 214.877 13.0548 214.203 13.0548ZM213.198 3.10166V13.0548H211.147V3.10166H213.198ZM228.993 2.54795H230.291C230.291 3.21787 230.205 3.78981 230.032 4.26377C229.859 4.73317 229.56 5.0932 229.136 5.34385C228.717 5.58994 228.136 5.71299 227.393 5.71299V4.65342C227.876 4.65342 228.232 4.57139 228.459 4.40733C228.687 4.23871 228.833 3.99717 228.897 3.68272C228.961 3.36826 228.993 2.99001 228.993 2.54795ZM225.609 3.10166H227.653V9.67783C227.653 10.4435 227.489 11.0883 227.161 11.6124C226.837 12.1365 226.388 12.5307 225.814 12.795C225.244 13.0593 224.588 13.1915 223.845 13.1915C223.102 13.1915 222.442 13.0593 221.863 12.795C221.289 12.5307 220.837 12.1365 220.509 11.6124C220.186 11.0883 220.024 10.4435 220.024 9.67783V3.10166H222.075V9.67783C222.075 10.1244 222.145 10.489 222.287 10.7716C222.428 11.0541 222.631 11.2615 222.895 11.3937C223.164 11.5258 223.481 11.5919 223.845 11.5919C224.219 11.5919 224.536 11.5258 224.795 11.3937C225.06 11.2615 225.26 11.0541 225.397 10.7716C225.538 10.489 225.609 10.1244 225.609 9.67783V3.10166ZM237.794 2.33604H239.113C239.113 2.97406 239.022 3.51638 238.84 3.96299C238.662 4.4096 238.386 4.7514 238.013 4.98838C237.639 5.22536 237.158 5.34385 236.57 5.34385V4.28428C236.894 4.28428 237.145 4.2068 237.322 4.05186C237.5 3.89691 237.623 3.6736 237.691 3.38194C237.76 3.09027 237.794 2.74164 237.794 2.33604ZM238.102 7.8458V8.31748C238.102 9.07399 237.999 9.75303 237.794 10.3546C237.594 10.9562 237.304 11.4688 236.926 11.8927C236.552 12.3119 236.106 12.6332 235.586 12.8565C235.071 13.0799 234.501 13.1915 233.877 13.1915C233.38 13.1915 232.913 13.1209 232.476 12.9796C232.043 12.8338 231.651 12.6241 231.3 12.3507C230.954 12.0727 230.655 11.7355 230.404 11.339C230.154 10.9425 229.96 10.4913 229.823 9.98545C229.691 9.47959 229.625 8.9236 229.625 8.31748V7.8458C229.625 7.08473 229.728 6.4057 229.933 5.80869C230.142 5.20713 230.434 4.69444 230.808 4.27061C231.186 3.84678 231.633 3.52321 232.148 3.2999C232.667 3.0766 233.239 2.96494 233.863 2.96494C234.36 2.96494 234.825 3.03786 235.258 3.18369C235.695 3.32497 236.087 3.5346 236.434 3.8126C236.785 4.08604 237.083 4.421 237.329 4.81748C237.58 5.21397 237.771 5.66514 237.903 6.171C238.036 6.67686 238.102 7.23513 238.102 7.8458ZM236.03 8.31748V7.83213C236.03 7.41286 235.998 7.03233 235.935 6.69053C235.875 6.34873 235.784 6.04795 235.661 5.78819C235.543 5.52842 235.395 5.31195 235.217 5.13877C235.044 4.96104 234.843 4.8266 234.615 4.73545C234.392 4.6443 234.141 4.59873 233.863 4.59873C233.517 4.59873 233.209 4.66937 232.941 4.81065C232.672 4.94736 232.444 5.15244 232.257 5.42588C232.075 5.69932 231.936 6.03656 231.84 6.4376C231.744 6.83864 231.696 7.30348 231.696 7.83213V8.31748C231.696 8.73675 231.726 9.11729 231.785 9.45908C231.849 9.80088 231.94 10.1039 232.059 10.3683C232.182 10.628 232.33 10.8468 232.503 11.0245C232.681 11.2022 232.884 11.3367 233.111 11.4278C233.344 11.519 233.599 11.5646 233.877 11.5646C234.223 11.5646 234.529 11.4939 234.793 11.3526C235.062 11.2114 235.288 11.004 235.47 10.7306C235.657 10.4526 235.796 10.1131 235.887 9.71201C235.982 9.30641 236.03 8.84157 236.03 8.31748ZM232.626 14.6612C232.626 14.3969 232.726 14.1759 232.927 13.9981C233.127 13.825 233.396 13.7384 233.733 13.7384C234.066 13.7384 234.333 13.825 234.533 13.9981C234.738 14.1759 234.841 14.3969 234.841 14.6612C234.841 14.921 234.738 15.1397 234.533 15.3175C234.333 15.4952 234.066 15.5841 233.733 15.5841C233.396 15.5841 233.127 15.4952 232.927 15.3175C232.726 15.1397 232.626 14.921 232.626 14.6612ZM245.426 9.75303H247.47C247.429 10.423 247.245 11.0177 246.917 11.5372C246.593 12.0567 246.14 12.4623 245.556 12.754C244.978 13.0457 244.28 13.1915 243.465 13.1915C242.827 13.1915 242.255 13.0821 241.749 12.8634C241.243 12.6401 240.81 12.3211 240.45 11.9063C240.094 11.4916 239.823 10.9903 239.636 10.4024C239.45 9.81455 239.356 9.15602 239.356 8.42686V7.73643C239.356 7.00726 239.452 6.34873 239.643 5.76084C239.839 5.16839 240.117 4.66481 240.477 4.2501C240.842 3.83539 241.277 3.51638 241.783 3.29307C242.289 3.06976 242.854 2.95811 243.478 2.95811C244.308 2.95811 245.007 3.1085 245.577 3.40928C246.151 3.71006 246.595 4.12477 246.91 4.65342C247.229 5.18207 247.42 5.78363 247.484 6.45811H245.433C245.411 6.05707 245.331 5.71755 245.194 5.43955C245.057 5.157 244.85 4.94509 244.572 4.80381C244.299 4.65798 243.934 4.58506 243.478 4.58506C243.136 4.58506 242.838 4.64886 242.583 4.77647C242.328 4.90407 242.113 5.09776 241.94 5.35752C241.767 5.61729 241.637 5.94541 241.551 6.3419C241.468 6.73382 241.427 7.19411 241.427 7.72276V8.42686C241.427 8.94183 241.466 9.39528 241.544 9.78721C241.621 10.1746 241.74 10.5027 241.899 10.7716C242.063 11.0359 242.273 11.2364 242.528 11.3731C242.788 11.5053 243.1 11.5714 243.465 11.5714C243.893 11.5714 244.246 11.503 244.524 11.3663C244.802 11.2296 245.014 11.0268 245.16 10.7579C245.31 10.489 245.399 10.1541 245.426 9.75303ZM256.104 3.10166V13.0548H254.061V3.10166H256.104ZM259.167 3.10166V4.70811H251.046V3.10166H259.167ZM264.072 9.50694H261.536V7.90733H264.072C264.464 7.90733 264.783 7.84352 265.029 7.71592C265.275 7.58376 265.455 7.40147 265.569 7.16904C265.683 6.93662 265.74 6.67458 265.74 6.38291C265.74 6.08669 265.683 5.81097 265.569 5.55576C265.455 5.30055 265.275 5.09548 265.029 4.94053C264.783 4.78558 264.464 4.70811 264.072 4.70811H262.247V13.0548H260.196V3.10166H264.072C264.851 3.10166 265.519 3.24294 266.075 3.52549C266.635 3.80348 267.064 4.18858 267.36 4.68076C267.656 5.17295 267.804 5.73578 267.804 6.36924C267.804 7.01182 267.656 7.56781 267.36 8.03721C267.064 8.50661 266.635 8.86891 266.075 9.12412C265.519 9.37933 264.851 9.50694 264.072 9.50694ZM275.717 7.15537V8.75498H270.522V7.15537H275.717ZM271.13 3.10166V13.0548H269.079V3.10166H271.13ZM277.18 3.10166V13.0548H275.136V3.10166H277.18ZM284.594 9.75303H286.638C286.597 10.423 286.412 11.0177 286.084 11.5372C285.76 12.0567 285.307 12.4623 284.724 12.754C284.145 13.0457 283.448 13.1915 282.632 13.1915C281.994 13.1915 281.422 13.0821 280.916 12.8634C280.41 12.6401 279.977 12.3211 279.617 11.9063C279.262 11.4916 278.99 10.9903 278.804 10.4024C278.617 9.81455 278.523 9.15602 278.523 8.42686V7.73643C278.523 7.00726 278.619 6.34873 278.81 5.76084C279.006 5.16839 279.284 4.66481 279.644 4.2501C280.009 3.83539 280.444 3.51638 280.95 3.29307C281.456 3.06976 282.021 2.95811 282.645 2.95811C283.475 2.95811 284.174 3.1085 284.744 3.40928C285.318 3.71006 285.763 4.12477 286.077 4.65342C286.396 5.18207 286.587 5.78363 286.651 6.45811H284.601C284.578 6.05707 284.498 5.71755 284.361 5.43955C284.225 5.157 284.017 4.94509 283.739 4.80381C283.466 4.65798 283.101 4.58506 282.645 4.58506C282.304 4.58506 282.005 4.64886 281.75 4.77647C281.495 4.90407 281.281 5.09776 281.107 5.35752C280.934 5.61729 280.804 5.94541 280.718 6.3419C280.636 6.73382 280.595 7.19411 280.595 7.72276V8.42686C280.595 8.94183 280.633 9.39528 280.711 9.78721C280.788 10.1746 280.907 10.5027 281.066 10.7716C281.23 11.0359 281.44 11.2364 281.695 11.3731C281.955 11.5053 282.267 11.5714 282.632 11.5714C283.06 11.5714 283.413 11.503 283.691 11.3663C283.969 11.2296 284.181 11.0268 284.327 10.7579C284.477 10.489 284.566 10.1541 284.594 9.75303ZM288.781 3.10166H290.517L293.074 10.4093L295.63 3.10166H297.367L293.771 13.0548H292.377L288.781 3.10166ZM287.844 3.10166H289.574L289.888 10.2247V13.0548H287.844V3.10166ZM296.574 3.10166H298.31V13.0548H296.259V10.2247L296.574 3.10166Z" fill="#355399"/>
<path d="M306.956 3.57727C306.956 5.54437 305.375 7.09976 303.478 7.09976C301.581 7.09976 300 5.49863 300 3.57727C300 1.65592 301.581 0.0547867 303.478 0.0547867C305.375 0.0547867 306.956 1.65592 306.956 3.57727ZM300.813 3.57727C300.723 5.04116 301.852 6.32207 303.342 6.41356C303.388 6.41356 303.478 6.41356 303.523 6.41356C304.969 6.41356 306.143 5.22415 306.143 3.71451C306.143 3.66877 306.143 3.66877 306.143 3.62302C306.369 2.15913 305.42 0.786732 303.975 0.557999C302.529 0.329266 301.174 1.28994 300.949 2.75383C300.903 3.02831 300.903 3.34854 300.949 3.62302L300.813 3.57727ZM302.891 5.36139H302.078V1.8389C302.529 1.74741 302.981 1.74741 303.388 1.74741C303.794 1.70166 304.201 1.79316 304.562 1.97614C304.788 2.15913 304.923 2.43361 304.878 2.75383C304.833 3.16555 304.562 3.48578 304.156 3.57727C304.517 3.71451 304.743 4.03474 304.788 4.44646C304.833 4.76668 304.923 5.04116 305.014 5.31564H304.156C304.02 5.13266 303.93 4.90392 303.839 4.72094C303.839 4.35496 303.568 4.17198 303.117 4.17198H302.755L302.891 5.36139ZM302.891 3.39429H303.252C303.704 3.39429 304.065 3.25705 304.065 2.89107C304.065 2.5251 303.885 2.34212 303.342 2.34212C303.207 2.34212 303.071 2.34212 302.891 2.34212V3.39429Z" fill="#22539E"/>
</svg>
